<?xml version="1.0" encoding="UTF-8"?>
<svg width="24px" height="24px" viewBox="0 0 24 24" version="1.1" xmlns="http://www.w3.org/2000/svg" xmlns:xlink="http://www.w3.org/1999/xlink">
    <!-- Generator: Sketch 48.1 (47250) - http://www.bohemiancoding.com/sketch -->
    <title>元素/基础图标/icon_close</title>
    <desc>Created with Sketch.</desc>
    <defs></defs>
    <g id="Symbols" stroke="none" stroke-width="1" fill="none" fill-rule="evenodd">
        <g id="元素/基础图标/icon_close">
            <rect id="Rectangle-2" x="2" y="2" width="20" height="20"></rect>
            <path d="M12,11 L12,3.5 C12,3.22385763 12.2238576,3 12.5,3 C12.7761424,3 13,3.22385763 13,3.5 L13,11 L20.5,11 C20.7761424,11 21,11.2238576 21,11.5 C21,11.7761424 20.7761424,12 20.5,12 L13,12 L13,19.5 C13,19.7761424 12.7761424,20 12.5,20 C12.2238576,20 12,19.7761424 12,19.5 L12,12 L4.5,12 C4.22385763,12 4,11.7761424 4,11.5 C4,11.2238576 4.22385763,11 4.5,11 L12,11 Z" id="Combined-Shape" fill="#B2B2B2" transform="translate(12.500000, 11.500000) rotate(45.000000) translate(-12.500000, -11.500000) "></path>
        </g>
    </g>
</svg>