<?xml version="1.0" encoding="UTF-8"?>
<svg width="40px" height="40px" viewBox="0 0 40 40" version="1.1" xmlns="http://www.w3.org/2000/svg" xmlns:xlink="http://www.w3.org/1999/xlink">
    <!-- Generator: Sketch 46.2 (44496) - http://www.bohemiancoding.com/sketch -->
    <title>icon_comment</title>
    <desc>Created with Sketch.</desc>
    <defs></defs>
    <g id="Symbols" stroke="none" stroke-width="1" fill="none" fill-rule="evenodd">
        <g id="icon_comment">
            <rect id="Rectangle" fill="#FFB85E" x="0" y="0" width="40" height="40" rx="4"></rect>
            <g id="评论" transform="translate(8.000000, 8.000000)" fill-rule="nonzero" fill="#FFFFFF">
                <path d="M11.9880664,0 C4.84233987,0 0,5.1338857 0,11.4668294 C0,14.1152546 0.856390523,16.5469383 2.36440048,18.4881516 L0.792853014,22.3008633 C0.596707887,22.888711 0.892354088,23.1713263 1.44941726,22.9336875 L7.04795619,22.0087024 C8.52025342,22.6026559 10.1795479,22.9336875 11.988039,22.9336875 C19.1337656,22.9336875 23.9761054,17.7998018 23.9761054,11.4668581 C23.9761054,5.13391436 19.1337656,0 11.9880664,0 Z M5.99401949,13.1698307 C5.09268591,13.1698307 4.36203154,12.4074088 4.36203154,11.4668294 C4.36203154,10.5263074 5.09268591,9.7638855 5.99401949,9.7638855 C6.89535307,9.7638855 7.62600744,10.5263074 7.62600744,11.4668294 C7.62600744,12.4074088 6.89535307,13.1698307 5.99401949,13.1698307 Z M11.9880664,13.1698307 C11.0867329,13.1698307 10.3560785,12.4074088 10.3560785,11.4668294 C10.3560785,10.5263074 11.0867329,9.7638855 11.9880664,9.7638855 C12.8894,9.7638855 13.6200544,10.5263074 13.6200544,11.4668294 C13.6200269,12.4074088 12.8893726,13.1698307 11.9880664,13.1698307 Z M17.9820859,13.1698307 C17.0807523,13.1698307 16.350098,12.4074088 16.350098,11.4668294 C16.350098,10.5263074 17.0807523,9.7638855 17.9820859,9.7638855 C18.8834195,9.7638855 19.6140739,10.5263074 19.6140739,11.4668294 C19.6140739,12.4074088 18.8834195,13.1698307 17.9820859,13.1698307 Z" id="Shape"></path>
            </g>
        </g>
    </g>
</svg>