<svg width="60" height="60" viewBox="0 0 60 60" xmlns="http://www.w3.org/2000/svg">
    <g fill="none" fill-rule="evenodd">
        <path d="M60 30.37C60 13.431 46.569 0 29.63 0 13.43 0 0 13.431 0 30.37 0 46.57 13.431 60 29.63 60 46.569 60 60 46.569 60 30.37z" fill="#2A75ED"/>
        <path d="M29.902 45.9h.196c1.111 0 2.002-.893 2.002-1.995v-17.01a2.004 2.004 0 0 0-2.002-1.995h-.196c-1.111 0-2.002.893-2.002 1.995v17.01c0 1.093.896 1.995 2.002 1.995zM30 15.6a3 3 0 1 0 0 6 3 3 0 0 0 0-6z" fill="#FFF"/>
    </g>
</svg>