<?xml version="1.0" encoding="UTF-8"?>
<svg width="24px" height="20px" viewBox="0 0 24 20" version="1.1" xmlns="http://www.w3.org/2000/svg" xmlns:xlink="http://www.w3.org/1999/xlink">
    <!-- Generator: Sketch 47.1 (45422) - http://www.bohemiancoding.com/sketch -->
    <title>icon/service/icon_service_phone</title>
    <desc>Created with Sketch.</desc>
    <defs></defs>
    <g id="Symbols" stroke="none" stroke-width="1" fill="none" fill-rule="evenodd">
        <g id="控件/悬浮/客服·反馈" transform="translate(-30.000000, -33.000000)">
            <g id="icon/service/icon_service_phone" transform="translate(30.000000, 31.000000)">
                <rect id="Rectangle-3" opacity="0.300000012" x="0" y="0" width="24" height="24"></rect>
                <path d="M3.64841331,3.4870885 C2.13804039,3.66532544 0.99999597,4.94556703 1,6.46642047 L1,8 C1,8.25213443 1.0885072,8.49626871 1.25008573,8.68982528 C1.63106462,9.14620376 2.30986665,9.20732328 2.76624287,8.82632852 C5.80523014,6.28942099 8.89268939,5 12.0127549,5 C15.1310104,5 18.2124398,6.28793345 21.2407561,8.82184508 C21.4335796,8.98318477 21.6769935,9.07158775 21.9284123,9.07158775 C22.5202338,9.07158775 23,8.59182157 23,8 L23,6.47226929 C23,4.95062149 21.8607923,3.66997435 20.3495067,3.49269706 C17.5491525,3.16422036 14.7495727,3 11.9505718,3 C9.16743572,3 6.40011709,3.16236388 3.64841331,3.4870885 Z M3.53121796,2.49397962 C6.32186071,2.16465987 9.12831198,2 11.9505718,2 C14.7885755,2 17.6270537,2.1665021 20.4660063,2.49950631 C22.4810559,2.73587628 24,4.4434037 24,6.47226929 L24,8 C24,9.14410632 23.0725186,10.0715877 21.9284123,10.0715877 C21.4423709,10.0715877 20.9718043,9.90068758 20.5990391,9.58878654 C17.7396854,7.19625261 14.8775826,6 12.0127549,6 C9.14583531,6 6.27727891,7.19800021 3.40708569,9.59400063 C2.52674915,10.3289285 1.21732132,10.2110215 0.482413617,9.3306681 C0.170729755,8.95729884 -8.55576315e-12,8.48636554 -8.55582272e-12,8 L-8.55610614e-12,6.46642047 C-5.37323649e-06,4.4386173 1.51738862,2.73162872 3.53121796,2.49397962 Z" id="Rectangle-2" fill="#353535" fill-rule="nonzero"></path>
                <path d="M12,16 C13.1045695,16 14,15.1045695 14,14 C14,12.8954305 13.1045695,12 12,12 C10.8954305,12 10,12.8954305 10,14 C10,15.1045695 10.8954305,16 12,16 Z M12,17 C10.3431458,17 9,15.6568542 9,14 C9,12.3431458 10.3431458,11 12,11 C13.6568542,11 15,12.3431458 15,14 C15,15.6568542 13.6568542,17 12,17 Z" id="Oval" fill="#353535" fill-rule="nonzero"></path>
                <path d="M20.853915,17.9081883 L20.2337985,15.2251917 C19.4360238,11.7735388 16.6898049,9 14.2770644,9 L9.72293557,9 C7.31019512,9 4.56397621,11.7735388 3.76620148,15.2251917 L3.07281652,18.2251917 C2.71087378,19.7911734 3.74015672,21 5.50439325,21 L18.4956067,21 C20.2598433,21 21.2891262,19.7911734 20.9271835,18.2251917 C20.9138626,18.1675574 20.895221,18.0869026 20.853915,17.9081883 Z M21.901498,18 C21.9138207,18.0533154 21.9249578,18.1063871 21.9349258,18.1591959 L20.9638133,18.3836741 L20.9589053,18.3624391 C20.9454971,18.3044272 20.9381401,18.2725964 20.9271835,18.2251917 L21.901498,18 Z M20.9271835,18.2251917 L20.9638133,18.3836741 L21.9349217,18.1591742 C22.3379956,20.2945256 20.8295118,22 18.4956067,22 L5.50439325,22 C3.11277689,22 1.58790745,20.209139 2.09850204,18 L2.791887,15 C3.68542753,11.1340068 6.78856368,8 9.72293557,8 L14.2770644,8 C17.2114363,8 20.3145725,11.1340068 21.208113,15 L21.901498,18 L20.9271835,18.2251917 Z" id="Rectangle" fill="#353535" fill-rule="nonzero"></path>
            </g>
        </g>
    </g>
</svg>