<?xml version="1.0" encoding="UTF-8"?>
<svg width="24px" height="24px" viewBox="0 0 24 24" version="1.1" xmlns="http://www.w3.org/2000/svg" xmlns:xlink="http://www.w3.org/1999/xlink">
    <!-- Generator: Sketch 47.1 (45422) - http://www.bohemiancoding.com/sketch -->
    <title>元素/概况/icon_finance</title>
    <desc>Created with Sketch.</desc>
    <defs></defs>
    <g id="Symbols" stroke="none" stroke-width="1" fill="none" fill-rule="evenodd">
        <g id="元素/概况/icon_finance">
            <rect id="Rectangle-2" fill="#FF6464" x="0" y="0" width="24" height="24" rx="2"></rect>
            <path d="M10.9331015,6.85714286 L11.259618,6.85714286 L12.875428,6.85714286 L14.6961839,6.85714286 L16.638478,6.85714286 C16.9530189,6.85714286 17.210372,6.66429046 17.210372,6.42857143 C17.210372,6.19285241 16.9530189,6.00000001 16.638478,6.00000001 L14.6962325,6 L12.8754442,6 L11.2596342,6 L10.9331177,6 L7.49655177,6 C7.18201088,6 6.92465776,6.19286594 6.92465776,6.42857142 C6.92465776,6.66429046 7.18201088,6.85714286 7.49655177,6.85714286 L10.9331015,6.85714286 Z M10.90289,11.7852004 L10.8885401,11.793118 L10.9069303,11.793118 L10.90289,11.7852004 Z M6.56616577,8.10078573 C6.2547754,8.10078573 6,8.36403872 6,8.68579053 L6,10.2523953 L6,15.8483738 L6,17.4149952 C6,17.736747 6.2547754,18 6.56616577,18 L17.4338342,18 C17.7452246,18 18,17.736747 18,17.4149952 L18,15.8483738 L18,10.2523953 L18,8.68579055 C18,8.36403872 17.7452246,8.10078573 17.4338342,8.10078573 L6.56616577,8.10078573 Z M14.4288449,14.1119749 C14.4288449,14.4004907 14.1740695,14.6365415 13.8626791,14.6365415 L12.5076257,14.6365415 L12.5076257,15.9040712 C12.5076257,16.225823 12.2791925,16.4891092 11.9999519,16.4891092 C11.7207754,16.4891092 11.4923102,16.2258231 11.4923102,15.9040712 L11.4923102,14.6365415 L10.1372407,14.6365415 C9.82585028,14.6365415 9.57107488,14.4005238 9.57107488,14.1119749 C9.57107488,13.8235421 9.82585028,13.5874747 10.1372407,13.5874747 L11.4923102,13.5874747 L11.4923102,12.8351789 L10.1372407,12.8351789 C9.82585028,12.8351789 9.57107488,12.5991612 9.57107488,12.3106124 C9.57107488,12.0221463 9.82585028,11.7860956 10.1372407,11.7860956 L10.888508,11.7860956 L10.6110161,11.2390843 L10.2815455,10.5910387 C10.1369358,10.3060869 10.2210161,9.96331599 10.4682995,9.82937706 C10.7155829,9.69543813 11.0361818,9.81901669 11.1807594,10.1040016 L11.445353,10.6256009 C11.4499893,10.6338395 11.4544492,10.6421941 11.4588129,10.650731 L11.7310268,11.187299 L12.0077808,11.7287571 L12.2828984,11.1864039 L12.5567647,10.650731 C12.5611123,10.6421609 12.5656524,10.6337898 12.5703048,10.625518 L12.8348503,10.1040348 C12.9794439,9.81904984 13.2999947,9.69547129 13.5472941,9.82941022 C13.7945776,9.96334915 13.8786096,10.3061035 13.7340802,10.5910719 L13.4051711,11.2394324 L13.1271016,11.7861287 L13.8626792,11.7861287 C14.1740695,11.7861287 14.4288449,12.0221795 14.4288449,12.3106455 C14.4288449,12.5991447 14.1740695,12.835212 13.8626792,12.835212 L12.5076257,12.835212 L12.5076257,13.5875079 L13.8626792,13.5875079 C14.1740695,13.5874747 14.4288449,13.8234592 14.4288449,14.1119749 Z" id="nav_Financial" fill="#FFFFFF"></path>
        </g>
    </g>
</svg>