<?xml version="1.0" encoding="UTF-8"?>
<svg width="24px" height="24px" viewBox="0 0 24 24" version="1.1" xmlns="http://www.w3.org/2000/svg" xmlns:xlink="http://www.w3.org/1999/xlink">
    <!-- Generator: Sketch 47.1 (45422) - http://www.bohemiancoding.com/sketch -->
    <title>元素/概况/icon_picture</title>
    <desc>Created with Sketch.</desc>
    <defs></defs>
    <g id="Symbols" stroke="none" stroke-width="1" fill="none" fill-rule="evenodd">
        <g id="元素/概况/icon_picture">
            <rect id="Rectangle-2" fill="#FB6161" x="0" y="0" width="24" height="24" rx="2"></rect>
            <g id="图文" transform="translate(6.000000, 7.000000)" fill-rule="nonzero" fill="#FFFFFF">
                <path d="M10.4838086,0 L1.49079904,0 C0.667263158,0 0,0.705717703 0,1.57620574 L0,8.5840622 C0,9.45439234 0.667263158,10.1602967 1.49079904,10.1602967 L10.4838086,10.1602967 C11.3073445,10.1602967 11.9746077,9.45439234 11.9746077,8.5840622 L11.9746077,1.57620574 C11.9746077,0.705717703 11.3073445,0 10.4838086,0 L10.4838086,0 Z M10.8859952,2.9029378 C8.57662679,3.02023923 8.51532057,5.87959809 7.14535407,5.94088995 C5.73321531,6.00397608 4.93662201,4.80232536 3.98478947,4.78266029 C3.03792344,4.72755502 2.0248134,5.45790431 1.08856938,5.80588995 L1.08856938,1.45148325 C1.08856938,1.13857895 1.15554545,1.08861244 1.45144019,1.08861244 L10.52311,1.08861244 C10.8190048,1.08861244 10.8859665,1.13856459 10.8859665,1.45148325 L10.8859665,2.9029378 L10.8859952,2.9029378 L10.8859952,2.9029378 Z M2.17721053,2.9029378 C2.17721053,2.30177512 2.66445933,1.81435407 3.26580861,1.81435407 C3.86717225,1.81435407 4.3544067,2.30177512 4.3544067,2.9029378 C4.3544067,3.50412919 3.86715789,3.99153589 3.26580861,3.99153589 C2.66444498,3.99153589 2.17721053,3.50412919 2.17721053,2.9029378 Z" id="Shape"></path>
            </g>
        </g>
    </g>
</svg>