<?xml version="1.0" encoding="UTF-8"?>
<svg width="40px" height="40px" viewBox="0 0 40 40" version="1.1" xmlns="http://www.w3.org/2000/svg" xmlns:xlink="http://www.w3.org/1999/xlink">
    <!-- Generator: Sketch 47.1 (45422) - http://www.bohemiancoding.com/sketch -->
    <title>元素/icon/社群/icon_activity</title>
    <desc>Created with Sketch.</desc>
    <defs>
        <polygon id="path-1" points="24 0.000342857143 24 24 0.000184615385 24 0.000184615385 0.000342857143"></polygon>
    </defs>
    <g id="Symbols" stroke="none" stroke-width="1" fill="none" fill-rule="evenodd">
        <g id="元素/icon/社群/icon_activity">
            <rect id="Rectangle" fill="#4D91FF" x="0" y="0" width="40" height="40" rx="4"></rect>
            <g id="Page-1" transform="translate(8.000000, 8.000000)">
                <mask id="mask-2" fill="white">
                    <use xlink:href="#path-1"></use>
                </mask>
                <g id="Clip-2"></g>
                <path d="M22.8786462,0.218057143 C18.9269538,1.13005714 16.4604923,1.97177143 14.7694154,1.97177143 C11.5414154,1.97177143 8.39833846,1.02805714 6.74326154,0.435771429 C6.14695385,0.222342857 5.53864615,0.708342857 5.53864615,1.38977143 L5.53864615,13.5672 C5.53864615,14.2460571 6.14141538,14.7303429 6.73772308,14.5229143 C8.29495385,13.9812 11.1389538,13.2646286 13.8463385,14.0000571 C16.8048,14.8032 21.5420308,13.6752 23.3078769,13.1952 C23.7168,13.0837714 24.0001846,12.6834857 24.0001846,12.2240571 L24.0001846,1.19777143 C24.0001846,0.5592 23.4537231,0.0852 22.8786462,0.218057143 M2.76941538,0.000342857143 L0.923261538,0.000342857143 C0.4128,0.000342857143 0.000184615385,0.383485714 0.000184615385,0.857485714 L0.000184615385,23.1432 C0.000184615385,23.6163429 0.4128,24.0003429 0.923261538,24.0003429 L2.76941538,24.0003429 C3.27987692,24.0003429 3.69249231,23.6163429 3.69249231,23.1432 L3.69249231,0.857485714 C3.69249231,0.383485714 3.27987692,0.000342857143 2.76941538,0.000342857143" id="Fill-1" fill="#FFFFFF" mask="url(#mask-2)"></path>
            </g>
        </g>
    </g>
</svg>