<?xml version="1.0" encoding="UTF-8"?>
<svg width="24px" height="24px" viewBox="0 0 24 24" version="1.1" xmlns="http://www.w3.org/2000/svg" xmlns:xlink="http://www.w3.org/1999/xlink">
    <!-- Generator: Sketch 47.1 (45422) - http://www.bohemiancoding.com/sketch -->
    <title>元素/概况/icon_shortlink</title>
    <desc>Created with Sketch.</desc>
    <defs></defs>
    <g id="Symbols" stroke="none" stroke-width="1" fill="none" fill-rule="evenodd">
        <g id="元素/概况/icon_shortlink">
            <rect id="Rectangle-2" fill="#5692F3" x="0" y="0" width="24" height="24" rx="2"></rect>
            <path d="M12,6 C8.69117647,6 6,8.69117647 6,12 C6,15.3088235 8.69117647,18 12,18 C15.3088235,18 18,15.3088235 18,12 C18,8.69117647 15.3088235,6 12,6 Z M10.9411765,14.6911765 C10.7205882,14.8676471 9.88235295,15.3088235 9.04411764,14.3382353 C8.20588235,13.3235294 9.04411764,12.6176471 9.04411764,12.6176471 C9.04411764,12.6176471 10.0588235,11.7794118 10.5,11.4264706 C10.9852941,11.0735294 11.1617647,10.9411765 11.6029412,10.9411765 C12.0882353,10.9411765 12.1764706,11.0294118 12.3970588,11.1617647 C12.5735294,11.3382353 12.8382353,11.6029412 12.8382353,11.6029412 C12.8382353,11.6029412 12.9705882,11.7794118 12.9705882,11.8676471 C12.9705882,11.9558824 12.7941176,12.0441176 12.617647,12.1323529 C12.3970588,12.2205882 12.3088235,12.0882353 12.3088235,12.0882353 C12.3088235,12.0882353 12.2205882,11.9558824 11.9558823,11.7352941 C11.6911765,11.5147059 11.25,11.7794118 11.25,11.7794118 C11.25,11.7794118 9.88235293,12.7941176 9.6617647,13.0147059 C9.44117646,13.2352941 9.39705883,13.4117647 9.48529411,13.6764706 C9.5735294,13.9411765 9.70588235,14.1617647 10.0588235,14.2058824 C10.4117647,14.25 10.6323529,14.0294118 10.6323529,14.0294118 L11.5147059,13.3235294 C11.5147059,13.3235294 11.6470588,13.5 11.9117647,13.5441177 C12.1764706,13.5882353 12.3529412,13.5441177 12.3529412,13.5441177 C12.3529412,13.5441177 11.1617647,14.5588235 10.9411765,14.6911765 Z M15,11.6029412 L13.4117647,12.8823529 C13.4117647,12.8823529 12.8382353,13.4558823 12.1323529,13.1470588 C11.4264706,12.8382353 11.3382353,12.4852941 11.3382353,12.4852941 C11.3382353,12.4852941 11.25,12.3088235 11.4264706,12.1764706 C11.6029412,12.0441176 11.8235294,12 12,12.1764706 C12.1764706,12.3529412 12.6176471,12.6617647 13.0147059,12.3088235 C13.4558824,11.9558824 14.4264706,11.2058823 14.6029412,11.0294118 C14.8235294,10.8529412 14.8676471,10.5441176 14.6029412,10.1911765 C14.3382353,9.8382353 13.9411765,9.75 13.5,10.1029412 C13.0588235,10.4558823 12.7058824,10.7647059 12.7058824,10.7647059 C12.7058824,10.7647059 12.5735294,10.6323529 12.1764706,10.5882353 C11.7794118,10.5441176 11.5147059,10.7205882 11.7794118,10.5441176 C12.0441177,10.3676471 13.0147059,9.5735294 13.0147059,9.5735294 C13.0147059,9.5735294 14.1617647,8.69117646 15.0441177,9.74999999 C15.9264706,10.8088235 15,11.6029412 15,11.6029412 Z" id="Shape" fill="#FFFFFF" fill-rule="nonzero"></path>
        </g>
    </g>
</svg>