<svg xmlns="http://www.w3.org/2000/svg" width="24" height="24" viewBox="0 0 24 24">
    <g fill="none" fill-rule="evenodd">
        <rect width="24" height="24" fill="#5F99F6" rx="2"/>
        <g fill="#FFF" transform="translate(6 6)">
            <circle cx="5.739" cy="3.13" r="3.13"/>
            <path d="M10.435 8.451a5.87 5.87 0 0 0-4.592-2.19C2.616 6.26 0 8.83 0 12h8.478s-.391-1.174.261-2.348 1.696-1.2 1.696-1.2z"/>
            <path d="M10.174 10.174H9.136a.264.264 0 0 0-.266.26c0 .14.12.262.266.262h1.038v1.037c0 .148.117.267.26.267.14 0 .262-.12.262-.267v-1.037h1.037a.264.264 0 0 0 .267-.261c0-.14-.12-.261-.267-.261h-1.037V9.136a.264.264 0 0 0-.261-.266c-.14 0-.261.12-.261.266v1.038z"/>
        </g>
    </g>
</svg>
