<?xml version="1.0" encoding="UTF-8"?>
<svg width="24px" height="24px" viewBox="0 0 24 24" version="1.1" xmlns="http://www.w3.org/2000/svg" xmlns:xlink="http://www.w3.org/1999/xlink">
    <!-- Generator: Sketch 47.1 (45422) - http://www.bohemiancoding.com/sketch -->
    <title>元素/概况/icon_chat</title>
    <desc>Created with Sketch.</desc>
    <defs></defs>
    <g id="Symbols" stroke="none" stroke-width="1" fill="none" fill-rule="evenodd">
        <g id="元素/概况/icon_chat">
            <rect id="Rectangle-2" fill="#5692F3" x="0" y="0" width="24" height="24" rx="2"></rect>
            <g id="Group-6" transform="translate(6.000000, 7.000000)" fill-rule="nonzero" fill="#FFFFFF">
                <path d="M0.00283476833,4.02684243 C0.00283476833,5.29575652 0.729304211,6.42556243 1.86150588,7.16233043 L1.86150588,8.20294693 C1.86150588,8.75134275 2.25978448,8.97186375 2.7322085,8.70611347 L4.03296244,7.97440696 C4.33330374,8.02050922 4.64241361,8.04697739 4.95928305,8.04697739 C7.69663625,8.04697739 9.91592352,6.24723061 9.91592352,4.0268647 C9.91592352,1.80647652 7.69644406,0.00655165217 4.95928305,0.00655165217 C2.22190583,0.0065293913 0.00283476833,1.80647652 0.00283476833,4.02684243 Z M2.4810469,4.6013287 C2.13890477,4.6013287 1.86148185,4.34410435 1.86148185,4.02706504 C1.86148185,3.7096473 2.13890477,3.45277913 2.4810469,3.45277913 C2.82318902,3.45277913 3.10061194,3.70984765 3.10061194,4.02706504 C3.10061194,4.34410435 2.82318902,4.6013287 2.4810469,4.6013287 L2.4810469,4.6013287 Z M4.95928305,4.6013287 C4.61714093,4.6013287 4.33971801,4.34410435 4.33971801,4.02706504 C4.33971801,3.7096473 4.61714093,3.45277913 4.95928305,3.45277913 C5.30142517,3.45277913 5.57884809,3.70984765 5.57884809,4.02706504 C5.57884809,4.34410435 5.30142517,4.6013287 4.95928305,4.6013287 L4.95928305,4.6013287 Z M7.43749518,4.6013287 C7.09516087,4.6013287 6.81776197,4.34410435 6.81776197,4.02706504 C6.81776197,3.7096473 7.09516087,3.45277913 7.43749518,3.45277913 C7.7796373,3.45277913 8.05706022,3.70984765 8.05706022,4.02706504 C8.05706022,4.34410435 7.7796373,4.6013287 7.43749518,4.6013287 L7.43749518,4.6013287 Z" id="Shape"></path>
                <path d="M10.5716439,3.7196647 C10.5744066,3.98964452 10.5716439,3.96497948 10.5716439,4.21572591 C10.5716439,6.85170226 8.32984662,8.67845148 5.22022588,8.67845148 L4.14993267,8.67845148 C4.99916199,9.44778713 5.98700669,9.91807026 7.36078827,9.91807026 C7.65291355,9.91807026 7.93783179,9.89373913 8.21511057,9.85168835 L9.34357811,10.4954873 C9.82479341,10.7700241 10.2148955,10.5387031 10.2148955,9.98922854 L10.2148955,9.11761391 C11.2990743,8.4295527 11.9985173,7.36087513 11.9985173,6.15792 C11.9985173,5.08523548 11.4420379,4.11993739 10.5534341,3.43481461 L10.5716439,3.7196647 Z" id="Shape"></path>
            </g>
        </g>
    </g>
</svg>