<?xml version="1.0" encoding="UTF-8"?>
<svg width="40px" height="40px" viewBox="0 0 40 40" version="1.1" xmlns="http://www.w3.org/2000/svg" xmlns:xlink="http://www.w3.org/1999/xlink">
    <!-- Generator: Sketch 47.1 (45422) - http://www.bohemiancoding.com/sketch -->
    <title>元素/icon/社群/icon_homework</title>
    <desc>Created with Sketch.</desc>
    <defs>
        <polygon id="path-1" points="23.6324403 0.000157142857 0 0.000157142857 0 21.9998429 23.6324403 21.9998429 23.6324403 0.000157142857"></polygon>
    </defs>
    <g id="Symbols" stroke="none" stroke-width="1" fill="none" fill-rule="evenodd">
        <g id="元素/icon/社群/icon_homework">
            <rect id="Rectangle" fill="#FB6161" x="0" y="0" width="40" height="40" rx="4"></rect>
            <g id="Page-1" transform="translate(10.000000, 9.000000)">
                <mask id="mask-2" fill="white">
                    <use xlink:href="#path-1"></use>
                </mask>
                <g id="Clip-2"></g>
                <path d="M21.8738571,13.7396286 L20.511,13.0364143 C20.0712857,12.8093429 19.515,12.9523429 19.2672857,13.3554143 L15.4221429,19.6159857 C15.4007143,19.6489857 15.3904286,19.6867 15.3912857,19.7252 L15.4238571,21.7138429 C15.4264286,21.8576286 15.5772857,21.9582 15.7272857,21.9173429 L18.2532857,21.2164857 C18.3115714,21.2007714 18.3604286,21.1646286 18.3912857,21.1159143 L22.221,14.8804857 C22.4687143,14.4774143 22.3135714,13.9667 21.8738571,13.7396286 L21.8738571,13.7396286 Z M23.1141429,11.5270571 L21.9321429,10.9165571 C21.4427143,10.6643429 20.8221429,10.8230571 20.547,11.2717 C20.2718571,11.7203429 20.445,12.2892 20.9344286,12.5414143 L22.1155714,13.1511286 C22.6058571,13.4041286 23.2255714,13.2454143 23.5007143,12.7967714 C23.7775714,12.3481286 23.6035714,11.7792714 23.1141429,11.5270571 L23.1141429,11.5270571 Z M13.7138571,6.30834286 C13.7138571,6.73027143 13.3418571,7.07127143 12.8824286,7.07127143 L4.26042857,7.07127143 C3.801,7.07127143 3.42814286,6.73027143 3.42814286,6.30834286 L3.42814286,6.26277143 C3.42814286,5.84162857 3.801,5.49984286 4.26042857,5.49984286 L12.8824286,5.49984286 C13.3418571,5.49984286 13.7138571,5.84162857 13.7138571,6.26277143 L13.7138571,6.30834286 Z M13.7138571,10.2369143 C13.7138571,10.6588429 13.3418571,10.9998429 12.8824286,10.9998429 L4.26042857,10.9998429 C3.801,10.9998429 3.42814286,10.6588429 3.42814286,10.2369143 L3.42814286,10.1913429 C3.42814286,9.7702 3.801,9.42841429 4.26042857,9.42841429 L12.8824286,9.42841429 C13.3418571,9.42841429 13.7138571,9.7702 13.7138571,10.1913429 L13.7138571,10.2369143 Z M11.9995714,14.1654857 C11.9995714,14.5874143 11.6275714,14.9284143 11.1681429,14.9284143 L4.26042857,14.9284143 C3.801,14.9284143 3.42814286,14.5874143 3.42814286,14.1654857 L3.42814286,14.1199143 C3.42814286,13.6987714 3.801,13.3569857 4.26042857,13.3569857 L11.1681429,13.3569857 C11.6275714,13.3569857 11.9995714,13.6987714 11.9995714,14.1199143 L11.9995714,14.1654857 Z M17.9995714,2.57305714 C17.9995714,1.1517 16.7438571,-0.000157142857 15.1932857,-0.000157142857 L2.80671429,-0.000157142857 C1.25614286,-0.000157142857 -0.000428571429,1.1517 -0.000428571429,2.57305714 L-0.000428571429,19.4266286 C-0.000428571429,20.8479857 1.25614286,21.9998429 2.80671429,21.9998429 L11.3541429,21.9998429 L17.9995714,12.0613429 L17.9995714,2.57305714 Z" id="Fill-1" fill="#FFFFFF" mask="url(#mask-2)"></path>
            </g>
        </g>
    </g>
</svg>