<?xml version="1.0" encoding="UTF-8"?>
<svg width="24px" height="24px" viewBox="0 0 24 24" version="1.1" xmlns="http://www.w3.org/2000/svg" xmlns:xlink="http://www.w3.org/1999/xlink">
    <!-- Generator: Sketch 47.1 (45422) - http://www.bohemiancoding.com/sketch -->
    <title>元素/概况/icon_voice</title>
    <desc>Created with Sketch.</desc>
    <defs></defs>
    <g id="Symbols" stroke="none" stroke-width="1" fill="none" fill-rule="evenodd">
        <g id="元素/概况/icon_voice">
            <rect id="Rectangle-2" fill="#FFB85E" x="0" y="0" width="24" height="24" rx="2"></rect>
            <g id="音频" transform="translate(7.000000, 6.000000)" fill-rule="nonzero">
                <path d="M10.0029018,2.50057983 L10.0029018,11.1999609 C10.0016644,11.6412305 9.65804487,11.9986485 9.23374903,12 L0.772167226,12 C0.347827381,11.9987128 0.00413947727,11.641276 0.00290178572,11.1999609 L0.00290178572,0.800039063 C0.00413947727,0.358723966 0.347827381,0.00128720405 0.772167226,0 L8.01386248,0 L10.0029018,2.50057983 Z M5.18583755,7.40097656 C4.94357584,7.27300781 4.65117159,7.2009375 4.33972444,7.2009375 C3.48978022,7.2009375 2.80130624,7.73695312 2.80130624,8.4009375 C2.80130624,9.0609375 3.48978022,9.6009375 4.33972444,9.6009375 C5.18966866,9.6009375 5.87814264,9.0609375 5.87814264,8.4009375 L5.87814264,4.90875 C6.00502017,4.96476562 6.45123243,5.15671875 7.07423941,4.80480469 C7.29351443,4.68480469 7.19728582,4.56082031 7.07040829,4.56082031 C6.26655013,4.56082031 5.71655971,4.22484375 5.42043703,4.0528125 C5.26662901,3.96082031 5.18583755,3.98882812 5.18583755,4.12078125 L5.18583755,7.40097656 Z" id="Combined-Shape" fill="#FFFFFF"></path>
                <path d="M9.54799107,2.51409912 L8.50976795,2.51409912 C8.08895902,2.51409912 7.74782599,2.15590943 7.74782599,1.71406006 L7.62840634,0 L9.54799107,2.51409912 Z" id="Shape" fill="#E4E4E4"></path>
            </g>
        </g>
    </g>
</svg>