<?xml version="1.0" encoding="UTF-8"?>
<svg width="24px" height="24px" viewBox="0 0 24 24" version="1.1" xmlns="http://www.w3.org/2000/svg" xmlns:xlink="http://www.w3.org/1999/xlink">
    <!-- Generator: Sketch 47.1 (45422) - http://www.bohemiancoding.com/sketch -->
    <title>元素/概况/icon_video</title>
    <desc>Created with Sketch.</desc>
    <defs></defs>
    <g id="Symbols" stroke="none" stroke-width="1" fill="none" fill-rule="evenodd">
        <g id="元素/概况/icon_video">
            <rect id="Rectangle-2" fill="#5692F3" x="0" y="0" width="24" height="24" rx="2"></rect>
            <g id="视频" transform="translate(6.000000, 8.000000)" fill-rule="nonzero" fill="#FFFFFF">
                <path d="M11.7939528,0.880714658 C11.5146108,0.699912255 9.42235487,1.71220246 9.42235487,1.71220246 L9.42235487,1.60628683 C9.42235487,0.722754644 8.70170007,0.00682489933 7.81271483,0.00682489933 L1.61088862,0.00682489933 C0.721875906,0.00682489933 0.00122110067,0.722754644 0.00122110067,1.60628683 L0.00122110067,6.98426226 C0.00122110067,7.86762961 0.721875906,8.58376538 1.61088862,8.58376538 L7.81272855,8.58376538 C8.70171379,8.58376538 9.42236859,7.86761587 9.42236859,6.98426226 L9.42236859,6.85292193 C9.42236859,6.85292193 11.5270828,7.85665482 11.7939666,7.68442346 C12.0607679,7.51228826 12.0732261,1.06133851 11.7939528,0.880714658 Z M4.83688835,5.94966292 C4.37536207,6.25737498 4.0012211,6.06347172 4.0012211,5.497456 L4.0012211,3.5161938 C4.0012211,2.95873475 4.36907999,2.75204194 4.83688835,3.06388592 L6.16555385,3.94958267 C6.62708013,4.25723898 6.63336221,4.75190517 6.16555385,5.06380567 L4.83688835,5.94966292 Z" id="Shape"></path>
            </g>
        </g>
    </g>
</svg>