<?xml version="1.0" encoding="UTF-8"?>
<svg width="40px" height="40px" viewBox="0 0 40 40" version="1.1" xmlns="http://www.w3.org/2000/svg" xmlns:xlink="http://www.w3.org/1999/xlink">
    <!-- Generator: Sketch 47.1 (45422) - http://www.bohemiancoding.com/sketch -->
    <title>元素/icon/sales/icon_coupon copy 7</title>
    <desc>Created with Sketch.</desc>
    <defs></defs>
    <g id="Symbols" stroke="none" stroke-width="1" fill="none" fill-rule="evenodd">
        <g id="元素/icon/sales/icon_coupon-copy-7">
            <rect id="Rectangle" fill="#FB6161" x="0" y="0" width="40" height="40" rx="4"></rect>
            <path d="M14.8648045,23.4285714 L9.71620112,23.4285714 C8.76960894,23.4285714 8,24.1973214 8,25.1428571 L8,30.2857143 C8,31.23125 8.76960894,32 9.71620112,32 L14.8648045,32 C15.8113966,32 16.5810056,31.23125 16.5810056,30.2857143 L16.5810056,25.1428571 C16.5810056,24.1973214 15.8113966,23.4285714 14.8648045,23.4285714 Z M30.2837989,23.4285714 L25.1351955,23.4285714 C24.1886034,23.4285714 23.4189944,24.1973214 23.4189944,25.1428571 L23.4189944,30.2857143 C23.4189944,31.23125 24.1886034,32 25.1351955,32 L30.2837989,32 C31.2303911,32 32,31.23125 32,30.2857143 L32,25.1428571 C32,24.1973214 31.2303911,23.4285714 30.2837989,23.4285714 Z M13.1217877,20 L26.8513966,20 L26.8513966,23.4285714 L28.5675978,23.4285714 L28.5675978,20 C28.5675978,19.0544643 27.7979888,18.2857143 26.8513966,18.2857143 L20.8446927,18.2857143 L20.8446927,16.5714286 L22.5608939,16.5714286 C23.507486,16.5714286 24.277095,15.8026786 24.277095,14.8571429 L24.277095,9.71428571 C24.277095,8.76875 23.507486,8 22.5608939,8 L17.4122905,8 C16.4656983,8 15.6960894,8.76875 15.6960894,9.71428571 L15.6960894,14.8571429 C15.6960894,15.8026786 16.4656983,16.5714286 17.4122905,16.5714286 L19.1284916,16.5714286 L19.1284916,18.2857143 L13.1217877,18.2857143 C12.1751955,18.2857143 11.4055866,19.0544643 11.4055866,20 L11.4055866,23.4285714 L13.1217877,23.4285714 L13.1217877,20 Z M17.4122905,14.8571429 L17.4122905,9.71428571 L22.5608939,9.71428571 L22.5608939,14.8571429 L17.4122905,14.8571429 Z" id="Shape" fill="#FFFFFF" fill-rule="nonzero"></path>
        </g>
    </g>
</svg>