<?xml version="1.0" encoding="UTF-8"?>
<svg width="24px" height="24px" viewBox="0 0 24 24" version="1.1" xmlns="http://www.w3.org/2000/svg" xmlns:xlink="http://www.w3.org/1999/xlink">
    <!-- Generator: Sketch 47.1 (45422) - http://www.bohemiancoding.com/sketch -->
    <title>元素/概况/icon_live</title>
    <desc>Created with Sketch.</desc>
    <defs></defs>
    <g id="Symbols" stroke="none" stroke-width="1" fill="none" fill-rule="evenodd">
        <g id="元素/概况/icon_live">
            <rect id="Rectangle-2" fill="#FB6161" x="0" y="0" width="24" height="24" rx="2"></rect>
            <path d="M16.6667676,8.41066687 L13.8885946,8.41066687 L15.3998335,7.24617454 C15.5993129,7.10286819 15.7069092,6.8592495 15.6805209,6.61064394 C15.6541326,6.36203839 15.4979555,6.14797367 15.2731,6.0522111 C15.0482445,5.95644853 14.7904622,5.99421413 14.6006206,6.15073062 L12.0004541,8.154068 L9.4002876,6.15073062 C9.2101132,5.99900316 8.95507981,5.96443301 8.73311107,6.06029387 C8.51114233,6.15615474 8.35674015,6.3675464 8.32918942,6.61330205 C8.30163869,6.85905771 8.40522178,7.10097812 8.6001665,7.24617454 L10.1114054,8.41066687 L7.33323242,8.41066687 C6.59690849,8.41066687 6,9.02393443 6,9.78043831 L6,16.6302286 C6,17.3867324 6.59690849,18 7.33323242,18 L16.6667676,18 C17.0203628,18 17.3594757,17.8556852 17.6095053,17.5988032 C17.8595348,17.3419213 18,16.9935145 18,16.6302286 L18,9.78043831 C18,9.41715233 17.8595348,9.06874561 17.6095053,8.81186363 C17.3594757,8.55498166 17.0203628,8.41066687 16.6667676,8.41066687 L16.6667676,8.41066687 Z M14.1065617,13.593031 L11.2221297,15.5683758 C10.9151593,15.7783203 10.6663135,15.6392904 10.6663135,15.2669887 L10.6663135,11.1614068 C10.6663135,10.7881721 10.9160675,10.6500752 11.2221297,10.8600197 L14.1065617,12.8316322 C14.4135321,13.0415767 14.4117157,13.3830865 14.1065617,13.593031 Z" id="Shape" fill="#FFFFFF" fill-rule="nonzero"></path>
        </g>
    </g>
</svg>