<?xml version="1.0" encoding="UTF-8"?>
<svg width="24px" height="24px" viewBox="0 0 24 24" version="1.1" xmlns="http://www.w3.org/2000/svg" xmlns:xlink="http://www.w3.org/1999/xlink">
    <!-- Generator: Sketch 47.1 (45422) - http://www.bohemiancoding.com/sketch -->
    <title>元素/概况/icon_column</title>
    <desc>Created with Sketch.</desc>
    <defs></defs>
    <g id="Symbols" stroke="none" stroke-width="1" fill="none" fill-rule="evenodd">
        <g id="元素/概况/icon_column">
            <rect id="Rectangle-2" fill="#FFB85E" x="0" y="0" width="24" height="24" rx="2"></rect>
            <path d="M11.5174256,16.4607954 L9.97900411,17.3083369 L9.97900411,17.3083369 C9.43638895,17.6072724 8.75417732,17.409731 8.4552418,16.8671159 C8.33399757,16.6470384 8.29015415,16.3926264 8.33073938,16.1446605 L8.64823865,14.2048177 L8.64823865,14.2048177 C8.69963239,13.8908146 8.5985289,13.5710951 8.37594128,13.3437318 L7.05888785,11.9984211 L7.05888785,11.9984211 C6.60637331,11.5361979 6.61424374,10.7946564 7.07646695,10.3421419 C7.25188167,10.1704116 7.47682124,10.0581388 7.71950631,10.0211853 L9.45198971,9.75738086 L9.45198971,9.75738086 C9.78139146,9.70722302 10.0641731,9.49629447 10.2061417,9.19485422 L10.9894823,7.53159706 L10.9894823,7.53159706 C11.252316,6.97352539 11.9177914,6.73418779 12.475863,6.99702157 C12.710776,7.107658 12.8998021,7.29668411 13.0104385,7.53159706 L13.7937791,9.19485422 L13.7937791,9.19485422 C13.9357477,9.49629447 14.2185293,9.70722302 14.5479311,9.75738086 L16.2804145,10.0211853 L16.2804145,10.0211853 C16.9198971,10.118559 17.3593633,10.7158991 17.2619895,11.3553817 C17.225036,11.5980668 17.1127632,11.8230064 16.9410329,11.9984211 L15.6239795,13.3437318 L15.6239795,13.3437318 C15.4013919,13.5710951 15.3002884,13.8908146 15.3516821,14.2048177 L15.6691814,16.1446605 L15.6691814,16.1446605 C15.7692469,16.7560365 15.354748,17.3327738 14.743372,17.4328393 C14.4954061,17.4734245 14.2409941,17.4295811 14.0209167,17.3083369 L12.4824952,16.4607954 L12.4824952,16.4607954 C12.1820909,16.2952979 11.8178299,16.2952979 11.5174256,16.4607954 Z" id="Star" fill="#FFFFFF"></path>
        </g>
    </g>
</svg>