<?xml version="1.0" encoding="UTF-8"?>
<svg width="24px" height="24px" viewBox="0 0 24 24" version="1.1" xmlns="http://www.w3.org/2000/svg" xmlns:xlink="http://www.w3.org/1999/xlink">
    <!-- Generator: Sketch 47.1 (45422) - http://www.bohemiancoding.com/sketch -->
    <title>元素/概况/icon_vip</title>
    <desc>Created with Sketch.</desc>
    <defs></defs>
    <g id="Symbols" stroke="none" stroke-width="1" fill="none" fill-rule="evenodd">
        <g id="元素/概况/icon_vip">
            <rect id="Rectangle-2" fill="#5692F3" x="0" y="0" width="24" height="24" rx="2"></rect>
            <path d="M16.7162107,11.2675737 L16.5692119,11.8949357 C16.5463454,12.5298564 16.1561966,14.7157974 16.1543487,14.7157974 L7.84565129,14.7157974 C7.84565129,14.7157974 7.59902001,12.5253212 7.53858718,11.8586546 L7.40955492,11.2328042 C7.30338914,11.266062 7.1923234,11.287226 7.07635769,11.287226 C6.48182931,11.287226 6,10.8397581 6,10.2864701 C6,9.73469388 6.48182931,9.28722599 7.07635769,9.28722599 C7.67251939,9.28722599 8.15271539,9.73469387 8.15271539,10.2864701 C8.15271539,10.4542706 8.1037158,10.6099773 8.02531645,10.7490552 L9.99836668,11.4293273 L11.6561862,8.94406651 C11.2315231,8.81103552 10.9228256,8.44066515 10.9228256,8.00075585 C10.9228256,7.44897959 11.404655,7 11.9991833,7 C12.5937117,7 13.0771744,7.44746787 13.0771744,8.00075585 C13.0771744,8.44066515 12.7684769,8.81103552 12.3421805,8.94406651 L14,11.4293273 L15.9534504,10.7157974 C15.8864843,10.5842782 15.8456513,10.4406652 15.8456513,10.2864701 C15.8456513,9.73469388 16.3291139,9.28571428 16.9236423,9.28571428 C17.5181707,9.28571428 18,9.73318216 18,10.2864701 C18,10.8397581 17.5181707,11.287226 16.9236423,11.287226 C16.8517762,11.287226 16.7831768,11.2796674 16.7162107,11.2675737 Z M14.3070641,17 L9.69130258,17 C9.01184157,17 8.25224282,16.8496657 7.87657928,16.0000814 L7.87657928,15.6687622 L16.1353226,15.6687622 L16.1353226,16.0000814 C15.7041262,16.8496657 15.1988567,17 14.3070641,17 Z" id="Shape" fill="#FFFFFF" fill-rule="nonzero"></path>
        </g>
    </g>
</svg>