<?xml version="1.0" encoding="UTF-8"?>
<svg width="40px" height="40px" viewBox="0 0 40 40" version="1.1" xmlns="http://www.w3.org/2000/svg" xmlns:xlink="http://www.w3.org/1999/xlink">
    <!-- Generator: Sketch 47.1 (45422) - http://www.bohemiancoding.com/sketch -->
    <title>元素/icon/社群/icon_community</title>
    <desc>Created with Sketch.</desc>
    <defs>
        <polygon id="path-1" points="0 9.7499625 0 0 24 0 24 9.7499625 24 19.499925 0 19.499925 0 9.7499625"></polygon>
    </defs>
    <g id="Symbols" stroke="none" stroke-width="1" fill="none" fill-rule="evenodd">
        <g id="元素/icon/社群/icon_community">
            <rect id="Rectangle" fill="#FB6161" x="0" y="0" width="40" height="40" rx="4"></rect>
            <g id="Page-1" transform="translate(8.000000, 10.000000)">
                <mask id="mask-2" fill="white">
                    <use xlink:href="#path-1"></use>
                </mask>
                <g id="Clip-2"></g>
                <path d="M19.125,9.220425 C18.20325,9.220425 17.235,9.890175 16.5,10.499925 C18.76875,11.519925 19.83,13.926675 20.17725,17.249925 L23.90175,17.249925 C23.96625,16.817175 24,16.370175 24,15.911925 C24,12.216675 21.8175,9.220425 19.125,9.220425 M19.125,8.249925 C20.98875,8.249925 22.5,6.738675 22.5,4.874925 C22.5,3.011175 20.98875,1.499925 19.125,1.499925 C18.66075,1.499925 18.219,1.594425 17.817,1.763925 C18.39975,2.522175 18.75,3.469425 18.75,4.499925 C18.75,5.774925 18.2175,6.923925 17.36475,7.742925 C17.8785,8.058675 18.47775,8.249925 19.125,8.249925 M7.3905,10.187925 C6.6555,9.578175 5.79675,9.220425 4.875,9.220425 C2.1825,9.220425 0,12.216675 0,15.911925 C0,16.370175 0.03375,16.817175 0.09825,17.249925 L3.07275,17.249925 C3.42,13.926675 5.12175,11.207925 7.3905,10.187925 M4.875,8.249925 C5.52225,8.249925 6.1215,8.058675 6.63525,7.742925 C5.7825,6.923925 5.25,5.774925 5.25,4.499925 C5.25,3.469425 5.60025,2.522175 6.183,1.763925 C5.781,1.594425 5.33925,1.499925 4.875,1.499925 C3.01125,1.499925 1.5,3.011175 1.5,4.874925 C1.5,6.738675 3.01125,8.249925 4.875,8.249925 M11.625,9.749925 C7.89675,9.749925 4.875,13.667175 4.875,18.500175 C4.875,19.099425 4.92225,18.934425 5.01075,19.499925 L18.23925,19.499925 C18.3285,18.934425 18.375,19.099425 18.375,18.500175 C18.375,13.667175 15.35325,9.749925 11.625,9.749925 M12.02175,8.999925 C14.6535,8.999925 16.78725,6.985425 16.78725,4.499925 C16.78725,2.015175 14.6535,-7.5e-05 12.02175,-7.5e-05 C9.39075,-7.5e-05 7.25775,2.015175 7.25775,4.499925 C7.25775,6.985425 9.39075,8.999925 12.02175,8.999925" id="Fill-1" fill="#F9FFFF" mask="url(#mask-2)"></path>
            </g>
        </g>
    </g>
</svg>