<?xml version="1.0" encoding="UTF-8"?>
<svg width="40px" height="40px" viewBox="0 0 40 40" version="1.1" xmlns="http://www.w3.org/2000/svg" xmlns:xlink="http://www.w3.org/1999/xlink">
    <!-- Generator: Sketch 47.1 (45422) - http://www.bohemiancoding.com/sketch -->
    <title>元素/icon/社群/icon_qanda</title>
    <desc>Created with Sketch.</desc>
    <defs>
        <polygon id="path-1" points="0 9.90137744 0 9.09090909e-05 24 9.09090909e-05 24 9.90137744 24 19.802664 0 19.802664"></polygon>
    </defs>
    <g id="Symbols" stroke="none" stroke-width="1" fill="none" fill-rule="evenodd">
        <g id="元素/icon/社群/icon_qanda">
            <rect id="Rectangle" fill="#FFB85E" x="0" y="0" width="40" height="40" rx="4"></rect>
            <g id="Page-1" transform="translate(8.000000, 10.000000)">
                <mask id="mask-2" fill="white">
                    <use xlink:href="#path-1"></use>
                </mask>
                <g id="Clip-2"></g>
                <path d="M16.8917143,8.84262256 C16.5351429,8.96840797 16.2857143,9.33841907 16.2857143,9.76168238 L16.2857143,10.050897 C16.2857143,10.5852555 15.9051429,11.0177002 15.4345714,11.0177002 L15.4225714,11.0177002 C14.952,11.0177002 14.5714286,10.5852555 14.5714286,10.050897 L14.5714286,7.90336362 C14.5714286,7.90336362 14.5714286,7.12477947 15.4285714,7.12477947 C16.2257143,7.12477947 16.6525714,6.9117706 16.8805714,6.68039889 C17.0991429,6.45912675 17.1608571,6.11941432 17.1188571,5.80081916 C17.0374286,5.20586335 16.7082857,4.20600705 15.4285714,4.20600705 C14.3417143,4.20600705 13.9431429,4.92399385 13.7965714,5.50058683 C13.6962857,5.89722404 13.3551429,6.15154928 12.9917143,6.15154928 C12.4328571,6.15154928 12.0017143,5.54282135 12.1671429,4.93592969 C12.5305714,3.60370611 13.5162857,2.25954668 15.4285714,2.25954668 C17.9442857,2.25954668 18.8571429,4.58703585 18.8571429,6.15154928 C18.8571429,6.94849626 18.4105714,8.30550967 16.8917143,8.84262256 M15.4285714,13.7721253 C14.9545714,13.7721253 14.5714286,13.3607978 14.5714286,12.8539836 C14.5714286,12.3471694 14.9545714,11.9358419 15.4285714,11.9358419 C15.9025714,11.9358419 16.2857143,12.3471694 16.2857143,12.8539836 C16.2857143,13.3607978 15.9025714,13.7721253 15.4285714,13.7721253 M22.0602857,0 L8.51657143,0 C7.59942857,0 6.85714286,0.734513347 6.85714286,1.64163733 L6.85714286,13.0486296 C6.85714286,13.9557536 7.59942857,14.6902669 8.51657143,14.6902669 L15.1054286,14.6902669 C15.3025714,14.7646364 15.4834286,14.8316608 15.6805714,14.9060302 L17.8851429,16.7955658 C18.5597143,17.3739951 19.7142857,16.9645039 19.7142857,16.1464397 L19.7142857,15.6084086 C19.7142857,15.1015944 20.1942857,14.6902669 20.7857143,14.6902669 L22.0602857,14.6902669 C23.1308571,14.6902669 24,13.9557536 24,13.0486296 L24,1.64163733 C24,0.734513347 23.1308571,0 22.0602857,0 M5.14285714,14.6902669 L5.14285714,5.5088501 L1.02857143,5.5088501 C0.460285714,5.5088501 0,5.9513944 0,6.4976887 L0,17.3739951 C0,17.9202894 0.460285714,18.3628337 1.02857143,18.3628337 L3.42857143,18.3628337 L3.42857143,19.0092054 C3.42857143,19.8805219 4.48542857,20.3258206 5.12142857,19.7226015 L6.55285714,18.3628337 L14.4,18.3628337 C14.9682857,18.3628337 15.4285714,17.9515062 15.4285714,17.444692 L15.4285714,16.5265503 L6.85714286,16.5265503 C5.91,16.5265503 5.14285714,15.7048135 5.14285714,14.6902669" id="Fill-1" fill="#F9FFFF" mask="url(#mask-2)"></path>
            </g>
        </g>
    </g>
</svg>