<?xml version="1.0" encoding="UTF-8"?>
<svg width="24px" height="24px" viewBox="0 0 24 24" version="1.1" xmlns="http://www.w3.org/2000/svg" xmlns:xlink="http://www.w3.org/1999/xlink">
    <!-- Generator: Sketch 47.1 (45422) - http://www.bohemiancoding.com/sketch -->
    <title>元素/概况/icon_banner</title>
    <desc>Created with Sketch.</desc>
    <defs></defs>
    <g id="Symbols" stroke="none" stroke-width="1" fill="none" fill-rule="evenodd">
        <g id="元素/概况/icon_banner">
            <rect id="Rectangle-2" fill="#2FCE63" x="0" y="0" width="24" height="24" rx="2"></rect>
            <g id="轮播图组件" transform="translate(6.000000, 8.000000)" fill-rule="nonzero" fill="#FFFFFF">
                <path d="M1.19976567,1.80785002 L0.595083775,1.80785002 C0.272946685,1.80785002 0,2.07539778 0,2.40593322 L0,6.00882953 C0,6.33516579 0.266347982,6.60691272 0.595083775,6.60691272 L1.19976567,6.60691272 L1.19976567,1.80785002 Z M10.797891,1.80785002 L11.4025729,1.80785002 C11.7319086,1.80785002 11.9976567,2.07959695 11.9976567,2.40593322 L11.9976567,6.00882953 C11.9976567,6.33996485 11.72471,6.60691272 11.4025729,6.60691272 L10.797891,6.60691272 L10.797891,1.80785002 Z" id="Shape"></path>
                <path d="M9.59812536,0.00820152548 L2.39953135,0.00820152548 C2.06839602,0.00820152548 1.79964851,0.276949033 1.79964851,0.608084362 L1.79964851,7.80667839 C1.79964851,8.1384136 2.06839602,8.40656123 2.39953135,8.40656123 L9.59812537,8.40656123 C9.92986059,8.40656123 10.1980082,8.1384136 10.1980082,7.80667839 L10.1980082,0.608084362 C10.1980082,0.276949033 9.92986058,0.00820152548 9.59812536,0.00820152548 Z M3.89923843,1.80785002 C4.3965413,1.80785002 4.79906268,2.21037141 4.79906268,2.70767428 C4.79906268,3.20497716 4.3965413,3.60749853 3.89923843,3.60749853 C3.40193556,3.60749853 2.99941417,3.20497716 2.99941417,2.70767428 C2.99941417,2.21037141 3.40193556,1.80785002 3.89923843,1.80785002 Z M2.39953135,7.20679554 C2.39953135,7.20679554 2.89083539,4.74607615 3.87044406,4.74607615 C4.85005274,4.74607615 4.73307558,5.58051317 5.46913182,5.58051317 C6.20578794,5.58051318 6.50992853,3.0076157 7.49973521,3.0076157 C8.48954189,3.0076157 9.59812536,7.20679554 9.59812536,7.20679554 L2.39953135,7.20679554 Z" id="Shape"></path>
            </g>
        </g>
    </g>
</svg>