<?xml version="1.0" encoding="UTF-8"?>
<svg width="40px" height="40px" viewBox="0 0 40 40" version="1.1" xmlns="http://www.w3.org/2000/svg" xmlns:xlink="http://www.w3.org/1999/xlink">
    <!-- Generator: Sketch 47.1 (45422) - http://www.bohemiancoding.com/sketch -->
    <title>icon/店铺设置/icon_wechat</title>
    <desc>Created with Sketch.</desc>
    <defs></defs>
    <g id="Symbols" stroke="none" stroke-width="1" fill="none" fill-rule="evenodd">
        <g id="icon/店铺设置/icon_wechat">
            <rect id="Rectangle" fill="#2FCE63" x="0" y="0" width="40" height="40" rx="4"></rect>
            <g id="服务号" transform="translate(9.000000, 8.000000)" fill-rule="nonzero" fill="#FFFFFF">
                <path d="M13.98557,15.4048898 C13.98557,13.2187646 17.5278623,11.8337106 17.5278623,6.76154644 C17.5278623,2.47806479 14.6247923,0.0171317495 11.0017005,0.0171317495 C7.37983092,0.0171317495 4.47676087,2.47803888 4.47676087,6.76154644 C4.47676087,11.8337106 8.01777778,13.2187905 8.01777778,15.4048898 C8.01777778,18.9453305 0.0070942029,17.968121 0.0070942029,21.4086739 C0.0070942029,24.299689 3.06682126,23.973149 3.06682126,23.973149 C4.30041546,23.973149 11.0016739,23.973149 11.0016739,23.973149 L18.9377488,23.973149 C20.1701208,23.973149 21.9974758,23.454324 21.9974758,21.4086739 C21.9975024,17.9681469 13.98557,18.9453305 13.98557,15.4048898 Z M10.99543,22.7309546 L9.05496618,20.2072225 L10.3486087,15.7906263 L11.6420918,15.7906263 L12.9357343,20.2072225 L10.99543,22.7309546 Z" id="Shape"></path>
            </g>
        </g>
    </g>
</svg>