<?xml version="1.0" encoding="UTF-8"?>
<svg width="40px" height="40px" viewBox="0 0 40 40" version="1.1" xmlns="http://www.w3.org/2000/svg" xmlns:xlink="http://www.w3.org/1999/xlink">
    <!-- Generator: Sketch 46.2 (44496) - http://www.bohemiancoding.com/sketch -->
    <title>icon_1 copy 7</title>
    <desc>Created with Sketch.</desc>
    <defs></defs>
    <g id="Symbols" stroke="none" stroke-width="1" fill="none" fill-rule="evenodd">
        <g id="icon_1-copy-7">
            <rect id="Rectangle" fill="#E1CA8C" x="0" y="0" width="40" height="40" rx="4"></rect>
            <g id="资源-2" transform="translate(8.000000, 8.000000)" fill-rule="nonzero" fill="#FFFFFF">
                <path d="M17.7692308,13.0542857 C16.0276584,13.0704174 14.3852432,13.8093834 13.2923077,15.0685714 L13.2923077,14.9485714 C12.5785731,14.4558152 12.1521587,13.6829086 12.1384615,12.8571429 C12.0793614,11.7437421 12.5442339,10.6614458 13.4123077,9.89142857 C13.4123077,9.89142857 14.1784615,9.3 13.6707692,7.39714286 C14.6109241,5.92140079 14.6770236,4.10266963 13.8461538,2.57142857 C13.5501558,1.64367782 12.8917783,0.85197894 12,0.351428571 C11.4132504,0.129478298 10.7873156,0.010327143 10.1538462,0 L10.0615385,0 C9.13340659,0.0131156905 8.21965348,0.214996611 7.38461538,0.591428571 C6.01560972,1.03653405 4.94326984,2.0417615 4.47692308,3.31714286 C3.96923077,4.86 4.73538462,6.52285714 5.11384615,7.35428571 C4.60615385,9.25714286 5.37230769,9.84857143 5.37230769,9.84857143 C6.25298912,10.6285205 6.71897617,11.7290893 6.64615385,12.8571429 C6.59250575,14.0976365 5.65086654,15.1511055 4.34769231,15.4285714 C2.93538462,15.9 -7.43952426e-16,16.8514286 -7.43952426e-16,19.9371429 C-0.00253166987,20.0628794 0.050143821,20.1841599 0.145908906,20.2730846 C0.241673991,20.3620093 0.37228369,20.4109223 0.507692308,20.4085714 L12.2676923,20.4085714 C13.2586285,22.879024 16.0113734,24.3370597 18.8058092,23.8715904 C21.6002451,23.4061212 23.6355855,21.1505339 23.64,18.5142857 C23.6449134,17.0662958 23.0282616,15.676172 21.9264788,14.6514794 C20.8246961,13.6267868 19.3286104,13.0519982 17.7692308,13.0542857 Z M17.7692308,22.7828571 C15.2202242,22.7828571 13.1538462,20.8640775 13.1538462,18.4971429 C13.1538462,16.1302082 15.2202242,14.2114286 17.7692308,14.2114286 C20.3182373,14.2114286 22.3846154,16.1302082 22.3846154,18.4971429 C22.359603,20.85439 20.3078047,22.7596313 17.7692308,22.7828571 L17.7692308,22.7828571 Z" id="Shape"></path>
                <path d="M19.68,17.2028571 L17.5384615,19.1057143 L16.3569231,18 C16.1020224,17.7633066 15.6887468,17.7633066 15.4338462,18 C15.1789455,18.2366935 15.1789455,18.6204494 15.4338462,18.8571429 L17.0953846,20.4 C17.2127286,20.5221599 17.3806369,20.5920154 17.5569231,20.5920154 C17.7332093,20.5920154 17.9011175,20.5221599 18.0184615,20.4 L20.5753846,18 C20.8302853,17.7633065 20.8302853,17.3795506 20.5753846,17.1428571 C20.320484,16.9061637 19.9072083,16.9061637 19.6523077,17.1428571 L19.68,17.2028571 Z" id="Shape"></path>
            </g>
        </g>
    </g>
</svg>