<?xml version="1.0" encoding="UTF-8"?>
<svg width="40px" height="40px" viewBox="0 0 40 40" version="1.1" xmlns="http://www.w3.org/2000/svg" xmlns:xlink="http://www.w3.org/1999/xlink">
    <!-- Generator: Sketch 46.2 (44496) - http://www.bohemiancoding.com/sketch -->
    <title>icon_user Info</title>
    <desc>Created with Sketch.</desc>
    <defs></defs>
    <g id="Symbols" stroke="none" stroke-width="1" fill="none" fill-rule="evenodd">
        <g id="icon_user-Info">
            <rect id="Rectangle" fill="#4D91FF" x="0" y="0" width="40" height="40" rx="4"></rect>
            <path d="M19.9869818,11.0043502 C22.8828766,11.0041007 25.7782433,11.0027533 28.6741141,11.0061218 C29.0011291,11.0063962 29.3315529,11.009116 29.6550153,11.0532057 C31.2155804,11.2660192 31.9860091,12.1505087 31.99057,13.787019 C32.0025963,17.8569235 32.0036285,21.9269527 31.990714,25.9967075 C31.9850969,27.7691299 30.8549109,28.9804125 29.1538226,28.9855526 C23.0349219,29.0041666 16.9159252,29.0059132 10.7970006,28.9842052 C9.1009773,28.9782666 8.02650597,27.8493248 8.01685611,26.0927717 C7.99467583,22.0421549 7.99426775,17.9909643 8.016328,13.9401728 C8.02705807,11.9719041 8.96448697,11.0198452 10.8634214,11.0089663 C13.9046162,10.9918743 16.945859,11.0044999 19.9869818,11.0043502 L19.9869818,11.0043502 L19.9869818,11.0043502 Z M16.9879048,23.999976 C16.9879048,23.2262963 17.0199259,22.5171478 16.9797657,21.8132031 C16.92956,20.9345852 16.323772,20.1361098 15.5442132,20.0680773 C14.5299472,19.9796856 13.501245,19.9785105 12.4861865,20.0579097 C11.7841852,20.1128008 11.2507928,20.6497699 11.12832,21.4216032 C10.9948809,22.261277 11.0354053,23.1357463 11,24 L16.9879048,24 L16.9879048,23.999976 L16.9879048,23.999976 Z M15.9999898,16.9668484 C15.9966439,15.8613222 15.1331926,15.005704 14.0148411,15.0000286 C12.8815273,14.9942349 11.9979771,15.8707103 12.0000035,16.9988673 C12.002077,18.1199536 12.8991993,19.0105703 14.0153594,18.9999052 C15.138824,18.9892401 16.0034299,18.1034949 15.9999898,16.9668484 L15.9999898,16.9668484 L15.9999898,16.9668484 Z M23.9746514,23.9987068 C25.0143491,23.9987068 26.0535272,24.0024571 27.0931068,23.9971847 C27.6919912,23.9942817 27.9762687,23.8433891 27.998496,23.5397054 C28.0226602,23.2084825 27.7564526,23.0134645 27.1411281,23.0097142 C25.0445131,22.9965958 22.9473783,22.9964075 20.8510467,23.0113304 C20.2418636,23.0156928 19.9783961,23.2152927 20.0013792,23.5484928 C20.0224491,23.8555032 20.2937352,23.995129 20.9102171,23.9976083 C21.931585,24.001798 22.9531891,23.9987068 23.9746514,23.9987068 L23.9746514,23.9987068 L23.9746514,23.9987068 Z M23.9746514,20.9987068 C25.0143491,20.9987068 26.0535272,21.0024571 27.0931068,20.9971847 C27.6919912,20.9942817 27.9762687,20.8433891 27.998496,20.5397054 C28.0226602,20.2084825 27.7564526,20.0134645 27.1411281,20.0097142 C25.0445131,19.9965958 22.9473783,19.9964075 20.8510467,20.0113304 C20.2418636,20.0156928 19.9783961,20.2152927 20.0013792,20.5484928 C20.0224491,20.8555032 20.2937352,20.995129 20.9102171,20.9976083 C21.931585,21.001798 22.9531891,20.9987068 23.9746514,20.9987068 L23.9746514,20.9987068 L23.9746514,20.9987068 Z M24.9809886,17.9987068 C25.7607619,17.9987068 26.5401454,18.0024571 27.3198301,17.9971847 C27.7689934,17.9942817 27.9822016,17.8433891 27.998872,17.5397054 C28.0169952,17.2084825 27.8173395,17.0134645 27.3558461,17.0097142 C25.7833848,16.9965958 24.2105337,16.9964075 22.6382851,17.0113304 C22.1813977,17.0156928 21.9837971,17.2152927 22.0010344,17.5484928 C22.0168368,17.8555032 22.2203014,17.995129 22.6826628,17.9976083 C23.4486887,18.001798 24.2148918,17.9987068 24.9809886,17.9987068 L24.9809886,17.9987068 L24.9809886,17.9987068 Z" id="Shape" fill="#FFFFFF" fill-rule="nonzero"></path>
        </g>
    </g>
</svg>