<?xml version="1.0" encoding="UTF-8"?>
<svg width="16px" height="16px" viewBox="0 0 16 16" version="1.1" xmlns="http://www.w3.org/2000/svg" xmlns:xlink="http://www.w3.org/1999/xlink">
    <!-- Generator: Sketch 47.1 (45422) - http://www.bohemiancoding.com/sketch -->
    <title>元素/图标/顶部/icon_top_help</title>
    <desc>Created with Sketch.</desc>
    <defs></defs>
    <g id="Symbols" stroke="none" stroke-width="1" fill="none" fill-rule="evenodd">
        <g id="元素/图标/顶部/icon_top_help">
            <rect id="Rectangle" x="0" y="0" width="16" height="16"></rect>
            <circle id="Oval-9" fill="#B2B2B2" cx="8" cy="8" r="8"></circle>
            <path d="M8.11670481,3 C7.12814645,3 6.35926773,3.3020595 5.81006865,3.90617849 C5.26086957,4.48283753 5,5.25171625 5,6.21281465 L6.08466819,6.21281465 C6.08466819,5.54004577 6.23569794,5.01830664 6.53775744,4.63386728 C6.86727689,4.18077803 7.37528604,3.9610984 8.0617849,3.9610984 C8.63844394,3.9610984 9.09153318,4.11212815 9.40732265,4.4416476 C9.70938215,4.74370709 9.87414188,5.16933638 9.87414188,5.71853547 C9.87414188,6.10297483 9.73684211,6.45995423 9.46224256,6.80320366 C9.3798627,6.91304348 9.21510297,7.0778032 8.99542334,7.29748284 C8.25400458,7.95652174 7.80091533,8.47826087 7.60869565,8.89016018 C7.44393593,9.23340961 7.36155606,9.63157895 7.36155606,10.0846682 L7.36155606,10.4004577 L8.45995423,10.4004577 L8.45995423,10.0846682 C8.45995423,9.71395881 8.5423341,9.38443936 8.7208238,9.08237986 C8.85812357,8.83524027 9.06407323,8.58810069 9.36613272,8.32723112 C9.97025172,7.79176201 10.3409611,7.43478261 10.4782609,7.27002288 C10.8215103,6.81693364 11,6.28146453 11,5.66361556 C11,4.83981693 10.7391304,4.19450801 10.2311213,3.72768879 C9.69565217,3.23340961 8.99542334,3 8.11670481,3 Z M7.91075515,11.3615561 C7.67734554,11.3615561 7.48512586,11.4302059 7.32036613,11.5949657 C7.15560641,11.7459954 7.08695652,11.9382151 7.08695652,12.1716247 C7.08695652,12.4050343 7.15560641,12.597254 7.32036613,12.7620137 C7.48512586,12.9130435 7.67734554,12.9954233 7.91075515,12.9954233 C8.14416476,12.9954233 8.33638444,12.9130435 8.50114416,12.7620137 C8.66590389,12.610984 8.74828375,12.4187643 8.74828375,12.1716247 C8.74828375,11.9382151 8.66590389,11.7459954 8.51487414,11.5949657 C8.35011442,11.4302059 8.14416476,11.3615561 7.91075515,11.3615561 Z" id="？" fill="#FFFFFF"></path>
        </g>
    </g>
</svg>