<?xml version="1.0" encoding="UTF-8"?>
<svg width="18px" height="18px" viewBox="0 0 18 18" version="1.1" xmlns="http://www.w3.org/2000/svg" xmlns:xlink="http://www.w3.org/1999/xlink">
    <!-- Generator: Sketch 47.1 (45422) - http://www.bohemiancoding.com/sketch -->
    <title>元素/nav/icon_set</title>
    <desc>Created with Sketch.</desc>
    <defs></defs>
    <g id="Symbols" stroke="none" stroke-width="1" fill="none" fill-rule="evenodd">
        <g id="元素/nav/icon_set">
            <rect id="Rectangle" x="0" y="0" width="16" height="16"></rect>
            <path d="M15.6449772,7.76997717 C15.3059361,7.76997717 14.9469178,7.50570776 14.8458904,7.18207763 L14.4223744,6.15182648 C14.2625571,5.8533105 14.3281963,5.41381279 14.5667808,5.17408676 L15.0907534,4.65068493 C15.3310502,4.41038813 15.3310502,4.01940639 15.0907534,3.77910959 L14.2197489,2.90924658 C13.9800228,2.66952055 13.5884703,2.66952055 13.3493151,2.90924658 L12.8247717,3.4326484 C12.586758,3.67180365 12.1455479,3.73744292 11.8464612,3.57762557 L10.8173516,3.15353881 C10.494863,3.05365297 10.2300228,2.69349315 10.2300228,2.35559361 L10.2300228,1.61586758 C10.2300228,1.27796804 9.95205479,1 9.61472603,1 L8.38413242,1 C8.04509132,1 7.76769406,1.27796804 7.76769406,1.61586758 L7.76769406,2.35445205 C7.76769406,2.69349315 7.50399543,3.05308219 7.17979452,3.15239726 L6.14954338,3.57648402 C5.8510274,3.73744292 5.41152968,3.67180365 5.17294521,3.43207763 L4.64783105,2.9086758 C4.40810502,2.66952055 4.01655251,2.66952055 3.77796804,2.9086758 L2.90810502,3.77853881 C2.668379,4.01826484 2.668379,4.40924658 2.90810502,4.6489726 L3.43093607,5.17294521 C3.67123288,5.41210046 3.73630137,5.85216895 3.57591324,6.15068493 L3.15182648,7.18207763 C3.05194064,7.50513699 2.69349315,7.77054795 2.35388128,7.77054795 L1.61586758,7.76940639 C1.27739726,7.76940639 1,8.04623288 1,8.38527397 L1,9.61586758 C1,9.95490868 1.27739726,10.2323059 1.61586758,10.2323059 L2.35388128,10.2323059 C2.69349315,10.2334475 3.05136986,10.4971461 3.15068493,10.8202055 L3.57648402,11.8504566 C3.73573059,12.1489726 3.67123288,12.5907534 3.43150685,12.8293379 L2.90753425,13.3527397 C2.66952055,13.5930365 2.66952055,13.984589 2.90753425,14.2226027 L3.77910959,15.0947489 C4.01769406,15.3339041 4.40924658,15.3339041 4.6489726,15.0947489 L5.17294521,14.5702055 C5.41152968,14.3310502 5.8510274,14.2665525 6.14840183,14.4269406 L7.18093607,14.8515982 C7.50513699,14.9520548 7.76883562,15.3105023 7.76883562,15.6489726 L7.76883562,16.385274 C7.76883562,16.7237443 8.04509132,17.0017123 8.38527397,17.0017123 L9.61586758,17.0017123 C9.95319635,17.0017123 10.2311644,16.7237443 10.2311644,16.385274 L10.2311644,15.6489726 C10.2311644,15.3099315 10.4960046,14.951484 10.8184932,14.8515982 L11.8504566,14.4269406 C12.1478311,14.2665525 12.5890411,14.3310502 12.8287671,14.5702055 L13.3498858,15.0947489 C13.5901826,15.3339041 13.9817352,15.3339041 14.2208904,15.0947489 L15.091895,14.2226027 C15.3321918,13.9834475 15.3321918,13.591895 15.091895,13.3527397 L14.5679224,12.8293379 C14.3287671,12.5901826 14.2636986,12.1495434 14.423516,11.8504566 L14.847032,10.8202055 C14.9486301,10.4971461 15.30879,10.2334475 15.6461187,10.2334475 L16.385274,10.2334475 C16.7231735,10.2334475 17,9.95605023 17,9.61700913 L17,8.38527397 C16.9988584,8.04623288 16.722032,7.76997717 16.3841324,7.76997717 L15.6449772,7.76997717 Z M9.00055638,11.9994436 C7.34310089,11.9994436 6,10.6568991 6,8.99944362 C6,7.34310089 7.34365727,6 9.00055638,6 C10.6563427,6 12,7.34310089 12,8.99944362 C12,10.6568991 10.6568991,11.9994436 9.00055638,11.9994436 Z" id="nav_Account" stroke="#CDD3E6"></path>
        </g>
    </g>
</svg>