<?xml version="1.0" encoding="UTF-8"?>
<svg width="18px" height="18px" viewBox="0 0 18 18" version="1.1" xmlns="http://www.w3.org/2000/svg" xmlns:xlink="http://www.w3.org/1999/xlink">
    <!-- Generator: Sketch 47.1 (45422) - http://www.bohemiancoding.com/sketch -->
    <title>元素/nav/icon_myservice</title>
    <desc>Created with Sketch.</desc>
    <defs></defs>
    <g id="Symbols" stroke="none" stroke-width="1" fill="none" fill-rule="evenodd">
        <g id="元素/nav/icon_myservice">
            <rect id="Rectangle" x="0" y="0" width="16" height="16"></rect>
            <path d="M12.9278351,1.5 C11.5518011,1.5 10.2494925,2.15493766 9.39665432,3.26620898 L9.00216311,3.78024176 L8.6049603,3.2683014 C7.74065982,2.15433572 6.43705075,1.5 5.06185567,1.5 C2.55064531,1.5 0.5,3.64572342 0.5,6.29390018 C0.5,7.60423641 0.884551475,8.47220896 1.89016591,9.95973592 C2.69651981,11.1684544 4.10699618,12.6146712 5.87768114,14.1489214 C6.97917972,15.1033399 8.1532312,16.0263302 8.65177491,16.3840654 C8.75391936,16.461178 8.87291344,16.5 9,16.5 C9.12914004,16.5 9.2523016,16.4602856 9.34822509,16.3840654 C9.44801709,16.3094587 9.57028313,16.2172241 9.73242268,16.0928669 C9.9991544,15.8882901 10.2885483,15.6617921 10.5973915,15.4143189 C11.4644781,14.7195306 12.3251679,13.9880117 13.127868,13.2476088 C13.8214079,12.6078942 14.440932,11.989228 14.9673336,11.4027705 C15.4299585,10.8873659 15.8139557,10.4041277 16.1102496,9.95911408 C16.271941,9.7175234 16.3406325,9.6138275 16.4287747,9.47655721 C17.1540708,8.34700152 17.5,7.43628838 17.5,6.29390018 C17.5,3.64420607 15.4479227,1.5 12.9278351,1.5 Z" id="Shape" stroke="#CDD3E6" fill-rule="nonzero"></path>
        </g>
    </g>
</svg>