<?xml version="1.0" encoding="UTF-8"?>
<svg width="18px" height="18px" viewBox="0 0 18 18" version="1.1" xmlns="http://www.w3.org/2000/svg" xmlns:xlink="http://www.w3.org/1999/xlink">
    <!-- Generator: Sketch 47.1 (45422) - http://www.bohemiancoding.com/sketch -->
    <title>元素/nav/icon_myservice_pre</title>
    <desc>Created with Sketch.</desc>
    <defs></defs>
    <g id="Symbols" stroke="none" stroke-width="1" fill="none" fill-rule="evenodd">
        <g id="元素/nav/icon_myservice_pre">
            <rect id="Rectangle" x="0" y="0" width="16" height="16"></rect>
            <path d="M12.9278351,1 C11.3814433,1 9.93814433,1.73937153 9,2.96179914 C8.05154639,1.73937153 6.60824742,1 5.06185567,1 C2.26804124,1 0,3.3758472 0,6.29390018 C0,8.03881701 0.81443299,9.26124461 1.4742268,10.237215 C3.3814433,13.0961183 8.1443299,16.6352434 8.35051546,16.7831177 C8.54639175,16.930992 8.77319588,17 9,17 C9.22680412,17 9.46391753,16.930992 9.64948454,16.7831177 C9.84536082,16.6352434 14.628866,13.08626 16.5257732,10.237215 C17.185567,9.25138632 18,8.03881701 18,6.29390018 C18,3.3758472 15.7319588,1 12.9278351,1 Z" id="Shape" fill="#FFFFFF" fill-rule="nonzero"></path>
        </g>
    </g>
</svg>