<?xml version="1.0" encoding="UTF-8"?>
<svg width="18px" height="18px" viewBox="0 0 18 18" version="1.1" xmlns="http://www.w3.org/2000/svg" xmlns:xlink="http://www.w3.org/1999/xlink">
    <!-- Generator: Sketch 47.1 (45422) - http://www.bohemiancoding.com/sketch -->
    <title>元素/nav/icon_shop_dis</title>
    <desc>Created with Sketch.</desc>
    <defs></defs>
    <g id="Symbols" stroke="none" stroke-width="1" fill="none" fill-rule="evenodd">
        <g id="元素/nav/icon_shop_dis" stroke="#80808F">
            <path d="M2.52410083,17 C1.6822307,17 1,16.3177693 1,15.4762842 L1,11.666573 C1,10.8253079 1.68221237,10.1428571 2.52410083,10.1428571 L6.33366539,10.1428571 C7.17491214,10.1428571 7.85714286,10.8253445 7.85714286,11.666573 L7.85714286,15.4762659 C7.85714286,16.3177693 7.17493049,17 6.33368374,17 L2.52410083,17 Z M2.52410083,7.85716119 C1.6822307,7.85716119 1,7.17493047 1,6.33344537 L1,2.52408251 C1,1.68230405 1.68221237,1 2.52410083,1 L6.33366539,1 C7.17491214,1 7.85714286,1.68230405 7.85714286,2.52408251 L7.85714286,6.33342704 C7.85714286,7.17493049 7.17493049,7.85716119 6.33368374,7.85716119 L2.52410083,7.85716119 Z M15.4759949,10.1428571 C16.3177528,10.1428571 17,10.8253464 17,11.666577 L17,15.4762801 C17,16.3177675 16.3177528,17 15.4759949,17 L11.6664039,17 C10.8250677,17 10.1428571,16.3177675 10.1428571,15.4762801 L10.1428571,11.6665954 C10.1428571,10.825328 10.8250677,10.1428571 11.6664039,10.1428571 L15.4759949,10.1428571 Z M15.4759949,1 C16.3177528,1 17,1.68248922 17,2.52371989 L17,6.33342297 C17,7.17491032 16.3177528,7.85714286 15.4759949,7.85714286 L11.6664039,7.85714286 C10.8250677,7.85714286 10.1428571,7.17491032 10.1428571,6.33342297 L10.1428571,2.52373822 C10.1428571,1.68247089 10.8250677,1 11.6664039,1 L15.4759949,1 Z" id="nav_content"></path>
        </g>
    </g>
</svg>