<?xml version="1.0" encoding="UTF-8"?>
<svg width="18px" height="18px" viewBox="0 0 18 18" version="1.1" xmlns="http://www.w3.org/2000/svg" xmlns:xlink="http://www.w3.org/1999/xlink">
    <!-- Generator: Sketch 47.1 (45422) - http://www.bohemiancoding.com/sketch -->
    <title>元素/nav/icon_marketing</title>
    <desc>Created with Sketch.</desc>
    <defs></defs>
    <g id="Symbols" stroke="none" stroke-width="1" fill="none" fill-rule="evenodd">
        <g id="元素/nav/icon_marketing">
            <rect id="Rectangle" x="0" y="0" width="16" height="16"></rect>
            <g id="nav_sales" transform="translate(1.000000, 1.000000)">
                <path d="M3.78948286,15.9999449 C1.69661629,15.9999449 0,14.3034021 0,12.2104988 C0,10.1175955 1.69661629,9.14285714 3.78948286,9.14285714 L6.85714286,9.14287549 L6.85714286,12.2104988 C6.85716121,14.3034021 5.88234943,15.9999449 3.78948286,15.9999449 Z" id="Shape" fill="#FB6161"></path>
                <path d="M12.2105171,0 C14.3033837,0 16,1.69657958 16,3.78944616 C16,5.88231273 14.3033837,6.85714286 12.2105171,6.85714286 L9.14283879,6.85714286 L9.14285714,3.78944616 C9.14285714,1.69656123 10.1176506,0 12.2105171,0 Z" id="Path" fill="#2FCE63"></path>
                <path d="M3.78948286,0 C1.69661629,0 0,1.69656123 0,3.78944616 C0,5.88233108 1.69659794,6.85714286 3.78946451,6.85714286 L6.85712451,6.85716121 L6.85714286,3.78946451 C6.85716121,1.69657958 5.88234943,0 3.78948286,0 Z" id="Path" fill="#58A3ED"></path>
                <path d="M12.2105171,15.9999449 C14.3033837,15.9999449 16,14.3033837 16,12.2104988 C16,10.1176139 14.3034021,9.14285714 12.2105355,9.14285714 L9.14285714,9.14285714 L9.14285714,12.2104804 C9.14285714,14.3033837 10.1176506,15.9999449 12.2105171,15.9999449 Z" id="Path" fill="#FFB85E"></path>
            </g>
        </g>
    </g>
</svg>