<?xml version="1.0" encoding="UTF-8"?>
<svg width="18px" height="18px" viewBox="0 0 18 18" version="1.1" xmlns="http://www.w3.org/2000/svg" xmlns:xlink="http://www.w3.org/1999/xlink">
    <!-- Generator: Sketch 47.1 (45422) - http://www.bohemiancoding.com/sketch -->
    <title>元素/nav/icon_assets_pre</title>
    <desc>Created with Sketch.</desc>
    <defs></defs>
    <g id="Symbols" stroke="none" stroke-width="1" fill="none" fill-rule="evenodd">
        <g id="元素/nav/icon_assets_pre">
            <rect id="Rectangle" x="0" y="0" width="18" height="18"></rect>
            <path d="M9,17 C4.581722,17 1,13.418278 1,9 C1,4.581722 4.581722,1 9,1 C13.418278,1 17,4.581722 17,9 C17,13.418278 13.418278,17 9,17 Z M6,5 L8.2173913,9.02240896 L6.60869565,9.02240896 L6.60869565,9.58263305 L8.52173913,9.58263305 L8.52173913,10.6806723 L6.60869565,10.6806723 L6.60869565,11.2408964 L8.52173913,11.2408964 L8.52173913,13 L9.47826087,13 L9.47826087,11.2408964 L11.4021739,11.2408964 L11.4021739,10.6806723 L9.47826087,10.6806723 L9.47826087,9.58263305 L11.4021739,9.58263305 L11.4021739,9.02240896 L9.7826087,9.02240896 L12,5 L10.923913,5 L9,8.67507003 L7.07608696,5 L6,5 Z" id="Oval-5" fill="#FFFFFF" fill-rule="nonzero"></path>
        </g>
    </g>
</svg>