<?xml version="1.0" encoding="UTF-8"?>
<svg width="18px" height="18px" viewBox="0 0 18 18" version="1.1" xmlns="http://www.w3.org/2000/svg" xmlns:xlink="http://www.w3.org/1999/xlink">
    <!-- Generator: Sketch 47.1 (45422) - http://www.bohemiancoding.com/sketch -->
    <title>元素/nav/icon_order_pre</title>
    <desc>Created with Sketch.</desc>
    <defs></defs>
    <g id="Symbols" stroke="none" stroke-width="1" fill="none" fill-rule="evenodd">
        <g id="元素/nav/icon_order_pre">
            <rect id="Rectangle" x="0" y="0" width="18" height="18"></rect>
            <path d="M13.6666667,1.5 L14.8333333,1.5 C15.2038044,1.5 15.5,1.7901508 15.5,2.14285714 L15.5,15.8571429 C15.5,16.2098492 15.2038044,16.5 14.8333333,16.5 L3.16666667,16.5 C2.79619561,16.5 2.5,16.2098492 2.5,15.8571429 L2.5,2.14285714 C2.5,1.7901508 2.79619561,1.5 3.16666667,1.5 L4.33333333,1.5 C4.60947571,1.5 4.83333333,1.27614237 4.83333333,1 C4.83333333,0.723857625 4.60947571,0.5 4.33333333,0.5 L3.16666667,0.5 C2.24847331,0.5 1.5,1.23319835 1.5,2.14285714 L1.5,15.8571429 C1.5,16.7668017 2.24847331,17.5 3.16666667,17.5 L14.8333333,17.5 C15.7515267,17.5 16.5,16.7668017 16.5,15.8571429 L16.5,2.14285714 C16.5,1.23319835 15.7515267,0.5 14.8333333,0.5 L13.6666667,0.5 C13.3905243,0.5 13.1666667,0.723857625 13.1666667,1 C13.1666667,1.27614237 13.3905243,1.5 13.6666667,1.5 Z" id="Rectangle-2" fill="#FFFFFF" fill-rule="nonzero"></path>
            <path d="M5.5,5 L12.5,5 C12.7761424,5 13,5.22385763 13,5.5 C13,5.77614237 12.7761424,6 12.5,6 L5.5,6 C5.22385763,6 5,5.77614237 5,5.5 C5,5.22385763 5.22385763,5 5.5,5 L5.5,5 Z M5.5,9 L12.5,9 C12.7761424,9 13,9.22385763 13,9.5 C13,9.77614237 12.7761424,10 12.5,10 L5.5,10 C5.22385763,10 5,9.77614237 5,9.5 C5,9.22385763 5.22385763,9 5.5,9 L5.5,9 Z M5.5,13 L12.5,13 C12.7761424,13 13,13.2238576 13,13.5 C13,13.7761424 12.7761424,14 12.5,14 L5.5,14 C5.22385763,14 5,13.7761424 5,13.5 C5,13.2238576 5.22385763,13 5.5,13 L5.5,13 Z M6.5,0 L11.5,0 C11.7761424,-5.07265313e-17 12,0.223857625 12,0.5 L12,0.5 C12,0.776142375 11.7761424,1 11.5,1 L6.5,1 C6.22385763,1 6,0.776142375 6,0.5 L6,0.5 L6,0.5 C6,0.223857625 6.22385763,5.07265313e-17 6.5,0 Z" id="Combined-Shape" fill="#FFFFFF"></path>
        </g>
    </g>
</svg>