<?xml version="1.0" encoding="UTF-8"?>
<svg width="18px" height="18px" viewBox="0 0 18 18" version="1.1" xmlns="http://www.w3.org/2000/svg" xmlns:xlink="http://www.w3.org/1999/xlink">
    <!-- Generator: Sketch 47.1 (45422) - http://www.bohemiancoding.com/sketch -->
    <title>元素/nav/icon_community</title>
    <desc>Created with Sketch.</desc>
    <defs></defs>
    <g id="Symbols" stroke="none" stroke-width="1" fill="none" fill-rule="evenodd">
        <g id="元素/nav/icon_community">
            <rect id="Rectangle" x="0" y="0" width="16" height="16"></rect>
            <path d="M5.66353122,11.4045194 C5.4769325,11.3238058 5.29465541,11.2332782 5.11745025,11.1333091 C4.94668197,11.0326846 4.8013376,10.8935129 4.69281497,10.726708 C4.59017199,10.4525164 4.63616792,10.1442023 4.81426066,9.91264867 C4.8819837,9.83016722 4.96435506,9.76114957 5.05715204,9.70913385 C5.11787489,9.6414384 5.17859773,9.6414384 5.29961878,9.03132238 C5.36034163,9.03132238 5.36034163,8.96362693 5.36034163,8.89593147 C5.40099329,8.66498392 5.46195715,8.43815002 5.54251016,8.21812001 C5.58248735,8.10941339 5.52833798,7.98848799 5.42106448,7.94690973 L5.42106448,7.26995517 C5.35991699,6.65983916 5.17817309,5.84663677 4.75353782,5.77894133 L4.44992359,5.77894133 C4.31148345,5.53684099 4.05962454,5.38333204 3.78282156,5.37234013 C3.37676095,5.33483241 2.97561129,5.48423459 2.69108426,5.77894133 C2.18955645,6.38241934 1.94920663,7.1638242 2.02398224,7.94776663 C1.94894989,8.0434289 1.92617169,8.17055841 1.96325939,8.28667237 C2.02040047,8.48630406 2.06102179,8.69037653 2.08470507,8.89678837 C2.08608503,8.96599641 2.13764065,9.02367366 2.20572614,9.03217929 C2.24022145,9.27235268 2.32271167,9.5029526 2.44819288,9.70999076 C2.50891573,9.77768622 2.63036142,9.84538167 2.69065962,9.91350558 C2.87282815,10.0488965 2.8121053,10.5913171 2.81210531,10.7275649 C2.76586376,10.9159957 2.6292793,11.0686022 2.44819288,11.134166 C2.3267472,11.2018615 1.1135642,11.6765866 0.871097449,11.8119775 C0.785067439,11.8327131 0.71091136,11.8874753 0.665310008,11.9639458 C0.619708657,12.0404163 0.606491167,12.132174 0.628630702,12.2185787 C0.558437592,12.5300322 0.517772469,12.8475176 0.507185018,13.1667435 C0.486723611,13.2554024 0.510567186,13.3485525 0.571019301,13.4161259 C0.631471417,13.4836994 0.720876132,13.5171384 0.810374601,13.5056493 L3.84354441,13.5056493 C3.89872273,13.021858 4.06490548,12.5577035 4.32890254,12.1500263 C4.99600456,11.3359671 5.66353122,11.5399103 5.66353122,11.4045194 L5.66353122,11.4045194 Z M17.3108523,12.1500263 C17.310875,11.9795344 17.2173842,11.8230304 17.0679609,11.7434252 C16.5220178,11.5688179 15.9939073,11.3418441 15.4908655,11.0656137 C15.3362919,10.9646599 15.2107819,10.824427 15.1269531,10.6590125 C15.0816137,10.381525 15.1241088,10.0966776 15.2483988,9.84495322 C15.3091216,9.77725776 15.4305673,9.70956231 15.4908655,9.64186685 C15.633182,9.44336014 15.7173453,9.20849444 15.7337569,8.96405538 L15.8552026,8.82866447 C15.8552026,8.76096902 15.9766483,8.35436783 15.9766483,8.21854846 C16.0136582,8.10242929 15.9908867,7.97533735 15.9159254,7.87964272 C15.9159254,7.6761279 16.098094,6.52401979 15.2483988,5.71081742 C14.9638717,5.41611068 14.5627221,5.2667085 14.1566615,5.30421622 C13.8798585,5.31520813 13.6279996,5.46871708 13.4895594,5.71081742 L13.1855206,5.71081742 C12.7608853,5.84620833 12.5179939,6.65983916 12.5179939,7.20183126 L12.5179939,7.88007117 C12.4327777,7.94240361 12.3865855,8.04555906 12.3965482,8.15128146 C12.4200104,8.3857715 12.4815555,8.61476793 12.5787167,8.82909293 C12.5845818,8.87947675 12.6057985,8.92678254 12.6394396,8.96448383 C12.6557489,9.20887503 12.7397615,9.44373089 12.8819063,9.6422953 C12.9426292,9.70999076 13.0640749,9.77768622 13.1243731,9.84581012 C13.3043,10.0765674 13.350447,10.385894 13.2458188,10.6598694 C13.15398,10.8400023 13.0042704,10.9833539 12.8211835,11.0664706 C12.6300828,11.136945 12.4470119,11.2278669 12.2751025,11.3376809 C12.2751025,11.4730718 12.9422046,11.3376809 13.6704541,12.0831878 C13.970079,12.4719988 14.139986,12.9465554 14.1558122,13.4388107 L17.188982,13.4388107 C17.2787349,13.4505492 17.3684793,13.4170754 17.429084,13.3492552 C17.4896887,13.2814349 17.513428,13.1879134 17.4925962,13.0990481 C17.4550277,12.778627 17.3941405,12.4614299 17.3104277,12.1500263 L17.3108523,12.1500263 Z M12.5184185,11.9465115 C11.9116147,11.6753012 10.455965,11.3363955 10.3345193,11.1324522 C10.1610176,10.7266581 10.1185274,10.276051 10.2130736,9.84452476 L11.9116147,9.84452476 C12.0330604,9.64100993 11.4869795,9.30253266 11.5477023,9.03046548 C11.7058171,8.49680868 11.8274075,7.95282165 11.9116147,7.40234692 C11.8939748,6.8336315 11.8330728,6.26712283 11.7294462,5.70781825 C11.3655338,3.61011601 10.0309051,3 8.99989061,3 C7.96887615,3 6.63424747,3.54242055 6.20961219,5.71124587 C6.10927206,6.27089043 6.0483965,6.83701075 6.02744365,7.40534608 C6.04778124,7.97307941 6.19281747,8.52917118 6.45207893,9.03346464 C6.63424747,9.23697947 5.96672081,9.71127611 6.0881665,9.84752393 L7.72598477,9.84752393 C7.82050188,10.279052 7.77801255,10.72965 7.60453909,11.1354514 C7.42237056,11.4066617 6.14846472,11.677872 5.54208553,11.9495107 C4.93570634,12.2211494 4.51064643,12.6273222 4.45034822,12.9662279 C4.34005788,13.457895 4.2590903,13.9557934 4.20788148,14.4572417 C4.17445901,14.5885918 4.20374077,14.7281548 4.28704913,14.8345712 C4.37035748,14.9409876 4.49813574,15.0020499 4.63251676,14.9996623 L13.3069663,14.9996623 C13.4466708,15.004968 13.5815237,14.9475376 13.6752103,14.8428365 C13.7688968,14.7381355 13.8117846,14.5969286 13.7923244,14.4572417 C13.7653779,13.9527995 13.6839316,13.4528331 13.549433,12.9662279 C13.3394324,12.5121598 12.9727918,12.1507522 12.5179939,11.9495107 L12.5184185,11.9465115 Z" id="Shape" stroke="#CDD3E6" fill-rule="nonzero"></path>
        </g>
    </g>
</svg>