<?xml version="1.0" encoding="UTF-8"?>
<svg width="18px" height="18px" viewBox="0 0 18 18" version="1.1" xmlns="http://www.w3.org/2000/svg" xmlns:xlink="http://www.w3.org/1999/xlink">
    <!-- Generator: Sketch 47.1 (45422) - http://www.bohemiancoding.com/sketch -->
    <title>元素/nav/icon_set_pre</title>
    <desc>Created with Sketch.</desc>
    <defs></defs>
    <g id="Symbols" stroke="none" stroke-width="1" fill="none" fill-rule="evenodd">
        <g id="元素/nav/icon_set_pre">
            <rect id="Rectangle" x="0" y="0" width="16" height="16"></rect>
            <path d="M16.0602882,7.69310074 C15.7000571,7.69310074 15.3186002,7.4123145 15.2112586,7.06845748 L14.7612728,5.97381564 C14.5914669,5.65664241 14.6612086,5.18967608 14.9147046,4.93496718 L15.4714255,4.37885274 C15.7267409,4.12353739 15.7267409,3.70811929 15.4714255,3.45280394 L14.5459832,2.52857449 C14.2912743,2.27386558 13.8752497,2.27386558 13.6211473,2.52857449 L13.0638199,3.08468893 C12.8109304,3.33879138 12.3421447,3.40853311 12.024365,3.23872717 L10.9309361,2.78813499 C10.588292,2.68200628 10.3068993,2.29933647 10.3068993,1.94031821 L10.3068993,1.1543593 C10.3068993,0.795341039 10.0115582,0.5 9.6531464,0.5 L8.3456407,0.5 C7.98540953,0.5 7.69067494,0.795341039 7.69067494,1.1543593 L7.69067494,1.93910531 C7.69067494,2.29933647 7.41049515,2.68139983 7.06603168,2.78692209 L5.97138984,3.23751427 C5.65421661,3.40853311 5.18725029,3.33879138 4.93375428,3.08408248 L4.37582049,2.52796804 C4.12111159,2.27386558 3.70508704,2.27386558 3.45159104,2.52796804 L2.52736159,3.45219749 C2.27265268,3.70690639 2.27265268,4.12232449 2.52736159,4.37703339 L3.08286958,4.93375428 C3.33818493,5.18785674 3.40732021,5.65542951 3.23690782,5.97260274 L2.78631564,7.06845748 C2.68018693,7.41170805 2.29933647,7.69370719 1.93849886,7.69370719 L1.1543593,7.69249429 C0.794734589,7.69249429 0.5,7.98662243 0.5,8.3468536 L0.5,9.6543593 C0.5,10.0145905 0.794734589,10.3093251 1.1543593,10.3093251 L1.93849886,10.3093251 C2.29933647,10.310538 2.67958048,10.5907178 2.78510274,10.9339683 L3.23751427,12.0286102 C3.40671376,12.3457834 3.33818493,12.8151755 3.08347603,13.0686715 L2.52675514,13.624786 C2.27386558,13.8801013 2.27386558,14.2961259 2.52675514,14.5490154 L3.45280394,15.4756707 C3.70629994,15.7297731 4.12232449,15.7297731 4.37703339,15.4756707 L4.93375428,14.9183433 C5.18725029,14.6642409 5.65421661,14.595712 5.97017694,14.7661244 L7.06724458,15.2173231 C7.41170805,15.3240582 7.69188784,15.7049087 7.69188784,16.0645334 L7.69188784,16.8468536 C7.69188784,17.2064783 7.98540953,17.5018193 8.3468536,17.5018193 L9.6543593,17.5018193 C10.0127711,17.5018193 10.3081122,17.2064783 10.3081122,16.8468536 L10.3081122,16.0645334 C10.3081122,15.7043022 10.5895049,15.3234518 10.932149,15.2173231 L12.0286102,14.7661244 C12.3445705,14.595712 12.8133562,14.6642409 13.0680651,14.9183433 L13.6217537,15.4756707 C13.8770691,15.7297731 14.2930936,15.7297731 14.5471961,15.4756707 L15.4726384,14.5490154 C15.7279538,14.294913 15.7279538,13.8788884 15.4726384,13.624786 L14.9159175,13.0686715 C14.6618151,12.8145691 14.5926798,12.3463898 14.7624857,12.0286102 L15.2124715,10.9339683 C15.3204195,10.5907178 15.7030893,10.310538 16.0615011,10.310538 L16.8468536,10.310538 C17.2058719,10.310538 17.5,10.0158034 17.5,9.6555722 L17.5,8.3468536 C17.4987871,7.98662243 17.204659,7.69310074 16.8456407,7.69310074 L16.0602882,7.69310074 Z M9.00059115,12.1869088 C7.2395447,12.1869088 5.8125,10.7604553 5.8125,8.99940885 C5.8125,7.2395447 7.24013585,5.8125 9.00059115,5.8125 C10.7598642,5.8125 12.1875,7.2395447 12.1875,8.99940885 C12.1875,10.7604553 10.7604553,12.1869088 9.00059115,12.1869088 Z" id="nav_Account" fill="#FFFFFF"></path>
        </g>
    </g>
</svg>