<?xml version="1.0" encoding="UTF-8"?>
<svg width="18px" height="18px" viewBox="0 0 18 18" version="1.1" xmlns="http://www.w3.org/2000/svg" xmlns:xlink="http://www.w3.org/1999/xlink">
    <!-- Generator: Sketch 47.1 (45422) - http://www.bohemiancoding.com/sketch -->
    <title>元素/nav/icon_community_pre</title>
    <desc>Created with Sketch.</desc>
    <defs></defs>
    <g id="Symbols" stroke="none" stroke-width="1" fill="none" fill-rule="evenodd">
        <g id="元素/nav/icon_community_pre">
            <rect id="Rectangle" x="0" y="0" width="16" height="16"></rect>
            <path d="M5.46726835,11.4045194 C5.26969323,11.3238058 5.07669396,11.2332782 4.88906497,11.1333091 C4.7082515,11.0326846 4.55435746,10.8935129 4.43945114,10.726708 C4.33077034,10.4525164 4.37947191,10.1442023 4.5680407,9.91264867 C4.63974745,9.83016722 4.72696418,9.76114957 4.82521981,9.70913385 C4.88951459,9.6414384 4.95380936,9.6414384 5.0819493,9.03132238 C5.14624408,9.03132238 5.14624408,8.96362693 5.14624408,8.89593147 C5.18928702,8.66498392 5.25383698,8.43815002 5.33912841,8.21812001 C5.3814572,8.10941339 5.32412256,7.98848799 5.21053886,7.94690973 L5.21053886,7.26995517 C5.14579446,6.65983916 4.95335975,5.84663677 4.50374592,5.77894133 L4.18227203,5.77894133 C4.03568836,5.53684099 3.76901422,5.38333204 3.47592871,5.37234013 C3.04598219,5.33483241 2.62123548,5.48423459 2.31997157,5.77894133 C1.78894213,6.38241934 1.53445408,7.1638242 1.61362825,7.94776663 C1.53418224,8.0434289 1.51006414,8.17055841 1.54933347,8.28667237 C1.60983579,8.48630406 1.6528466,8.69037653 1.67792302,8.89678837 C1.67938415,8.96599641 1.73397246,9.02367366 1.80606297,9.03217929 C1.84258742,9.27235268 1.92993,9.5029526 2.06279246,9.70999076 C2.12708725,9.77768622 2.25567679,9.84538167 2.31952195,9.91350558 C2.51240628,10.0488965 2.4481115,10.5913171 2.44811151,10.7275649 C2.39914986,10.9159957 2.25453102,11.0686022 2.06279246,11.134166 C1.93420292,11.2018615 0.649656207,11.6765866 0.392926711,11.8119775 C0.301836112,11.8327131 0.22331791,11.8874753 0.175034127,11.9639458 C0.126750343,12.0404163 0.112755353,12.132174 0.136197214,12.2185787 C0.0618750977,12.5300322 0.018817908,12.8475176 0.00760766568,13.1667435 C-0.014057353,13.2554024 0.0111887847,13.3485525 0.075196907,13.4161259 C0.139205029,13.4836994 0.233868845,13.5171384 0.32863193,13.5056493 L3.54022349,13.5056493 C3.59864759,13.021858 3.7746058,12.5577035 4.0541321,12.1500263 C4.76047542,11.3359671 5.46726835,11.5399103 5.46726835,11.4045194 L5.46726835,11.4045194 Z M17.799726,12.1500263 C17.79975,11.9795344 17.7007597,11.8230304 17.5425469,11.7434252 C16.9644895,11.5688179 16.4053136,11.3418441 15.8726811,11.0656137 C15.709015,10.9646599 15.5761221,10.824427 15.4873621,10.6590125 C15.4393557,10.381525 15.4843505,10.0966776 15.6159516,9.84495322 C15.6802464,9.77725776 15.808836,9.70956231 15.8726811,9.64186685 C16.0233692,9.44336014 16.1124833,9.20849444 16.1298602,8.96405538 L16.2584498,8.82866447 C16.2584498,8.76096902 16.3870393,8.35436783 16.3870393,8.21854846 C16.4262263,8.10242929 16.4021154,7.97533735 16.3227446,7.87964272 C16.3227446,7.6761279 16.5156289,6.52401979 15.6159516,5.71081742 C15.3146877,5.41611068 14.889941,5.2667085 14.4599945,5.30421622 C14.166909,5.31520813 13.9002348,5.46871708 13.7536512,5.71081742 L13.4317277,5.71081742 C12.9821138,5.84620833 12.7249347,6.65983916 12.7249347,7.20183126 L12.7249347,7.88007117 C12.6347058,7.94240361 12.5857965,8.04555906 12.5963452,8.15128146 C12.6211875,8.3857715 12.6863528,8.61476793 12.7892295,8.82909293 C12.7954396,8.87947675 12.8179043,8.92678254 12.8535243,8.96448383 C12.8707929,9.20887503 12.9597475,9.44373089 13.1102538,9.6422953 C13.1745486,9.70999076 13.3031381,9.77768622 13.3669833,9.84581012 C13.5574941,10.0765674 13.6063556,10.385894 13.4955728,10.6598694 C13.3983318,10.8400023 13.2398157,10.9833539 13.045959,11.0664706 C12.843617,11.136945 12.6497773,11.2278669 12.4677556,11.3376809 C12.4677556,11.4730718 13.1740989,11.3376809 13.9451866,12.0831878 C14.2624365,12.4719988 14.4423381,12.9465554 14.4590953,13.4388107 L17.6706868,13.4388107 C17.7657193,13.4505492 17.8607428,13.4170754 17.9249125,13.3492552 C17.9890821,13.2814349 18.0142179,13.1879134 17.9921607,13.0990481 C17.9523823,12.778627 17.8879134,12.4614299 17.7992764,12.1500263 L17.799726,12.1500263 Z M12.7253843,11.9465115 C12.0828862,11.6753012 10.54161,11.3363955 10.4130204,11.1324522 C10.2293127,10.7266581 10.1843231,10.276051 10.2844309,9.84452476 L12.0828862,9.84452476 C12.2114757,9.64100993 11.6332724,9.30253266 11.6975671,9.03046548 C11.8649828,8.49680868 11.9937256,7.95282165 12.0828862,7.40234692 C12.0642086,6.8336315 11.9997242,6.26712283 11.8900018,5.70781825 C11.5046828,3.61011601 10.0915465,3 8.99988418,3 C7.90822181,3 6.49508555,3.54242055 6.04547173,5.71124587 C5.93922924,6.27089043 5.87477276,6.83701075 5.8525874,7.40534608 C5.87412132,7.97307941 6.02768909,8.52917118 6.30220122,9.03346464 C6.49508555,9.23697947 5.78829262,9.71127611 5.91688218,9.84752393 L7.6510427,9.84752393 C7.75111964,10.279052 7.70613093,10.72965 7.52245315,11.1354514 C7.32956882,11.4066617 5.98072735,11.677872 5.33867879,11.9495107 C4.69663024,12.2211494 4.24656681,12.6273222 4.18272164,12.9662279 C4.06594364,13.457895 3.98021325,13.9557934 3.92599216,14.4572417 C3.89060365,14.5885918 3.92160788,14.7281548 4.00981672,14.8345712 C4.09802557,14.9409876 4.23332019,15.0020499 4.37560599,14.9996623 L13.5603172,14.9996623 C13.7082397,15.004968 13.8510251,14.9475376 13.9502226,14.8428365 C14.0494201,14.7381355 14.0948307,14.5969286 14.0742258,14.4572417 C14.0456943,13.9527995 13.959457,13.4528331 13.8170467,12.9662279 C13.5946932,12.5121598 13.2064854,12.1507522 12.7249347,11.9495107 L12.7253843,11.9465115 Z" id="Shape" fill="#FFFFFF" fill-rule="nonzero"></path>
        </g>
    </g>
</svg>